<svg viewBox="0 0 1080 1080" fill="none" xmlns="http://www.w3.org/2000/svg">      <defs>  <filter id="filter" x="-20%" y="-20%" width="140%" height="140%" filterUnits="objectBoundingBox" primitiveUnits="userSpaceOnUse" color-interpolation-filters="linearRGB">    <feMorphology operator="dilate" radius="20 20" in="SourceAlpha" result="morphology"/>    <feFlood flood-color="#ffffff" flood-opacity="1" result="flood"/>    <feComposite in="flood" in2="morphology" operator="in" result="composite"/>    <feMerge result="merge">          <feMergeNode in="composite" result="mergeNode"/>      <feMergeNode in="SourceGraphic" result="mergeNode1"/>      </feMerge>  </filter></defs>      <g id="notion-avatar" filter="url(#filter)">        <g id="notion-avatar-face" fill="#ffffff">      <!--?xml version="1.0" encoding="UTF-8"?-->    <title>Face/ 10</title>    <g id="Face/-10" stroke="none" stroke-width="1" fill-rule="evenodd" stroke-linecap="round" stroke-linejoin="round">        <path d="M532,379 C664.54834,379 772,486.45166 772,619 C772,751.54834 684.54834,899 592,899 C535.13263,899 351.668898,801.612202 313.752775,718.980575 L313.322946,718.989282 L312,719 C267.81722,719 232,683.18278 232,639 C232,599.134956 261.158843,566.080325 299.312086,560.00055 C325.599297,455.979213 419.809919,379 532,379 Z M295.858895,624.545187 L304.141105,655.454813" id="Path" stroke="#000000" stroke-width="24"/>    </g>    </g><g id="notion-avatar-nose">      <g id="Nose/ 13"><path id="Path" fill-rule="evenodd" clip-rule="evenodd" d="M644 560C644 560 665.892 613.522 673 623C676 627 693.906 641.256 692.774 653.58C690.065 683.076 644 684.359 644 684.359C644 684.359 700 689.489 700 653.58C700 637.222 687 632 674 620C666.959 613.5 644 560 644 560Z" fill="black" stroke="black" stroke-width="6" stroke-linecap="round" stroke-linejoin="round"/></g>    </g><g id="notion-avatar-mouth">      <!--?xml version="1.0" encoding="UTF-8"?-->    <title>Mouth/ 0</title>    <g id="Mouth/-0" stroke="none" stroke-width="1" fill="none" fill-rule="evenodd" stroke-linecap="round" stroke-linejoin="round">        <path d="M549,759 C576.33038,765.666667 599.663714,769 619,769 C638.336286,769 655.002953,765.666667 669,759" id="Path" stroke="#000000" stroke-width="16"/>    </g>    </g><g id="notion-avatar-eyes">      <!--?xml version="1.0" encoding="UTF-8"?-->    <title>Eyes/ 6</title>    <g id="Eyes/-6" stroke="none" stroke-width="1" fill="none" fill-rule="evenodd">        <g id="Group" transform="translate(518.000000, 518.575690)">            <circle id="Oval" fill="#000000" cx="48.2285714" cy="20" r="20"/>            <path d="M0,22.4243101 C16,9.09097677 32,2.42431011 48,2.42431011 C64,2.42431011 80,9.09097677 96,22.4243101" id="Path" stroke="#000000" stroke-width="12" stroke-linecap="round" stroke-linejoin="round"/>            <circle id="Oval" fill="#000000" transform="translate(193.771429, 20.000000) scale(-1, 1) translate(-193.771429, -20.000000) " cx="193.771429" cy="20" r="20"/>            <path d="M146,22.4243101 C162,9.09097677 178,2.42431011 194,2.42431011 C210,2.42431011 226,9.09097677 242,22.4243101" id="Path" stroke="#000000" stroke-width="12" stroke-linecap="round" stroke-linejoin="round" transform="translate(194.000000, 12.424310) scale(-1, 1) translate(-194.000000, -12.424310) "/>        </g>    </g>    </g><g id="notion-avatar-eyebrows">      <g id="Eyebrows/ 15"><g id="Group"><path id="Path" fill-rule="evenodd" clip-rule="evenodd" d="M622.289 506.124C622.289 506.124 622.95 493.517 619.376 491.698C615.802 489.88 558.683 477.099 542.118 478.134C525.552 479.169 502.752 494.15 502.752 494.15C502.752 494.15 526.26 485.069 547.179 487.167C568.098 489.265 622.289 506.124 622.289 506.124Z" fill="black" stroke="black" stroke-width="4" stroke-linecap="round" stroke-linejoin="round"/><path id="Path_2" fill-rule="evenodd" clip-rule="evenodd" d="M654.711 506.124C654.711 506.124 654.05 493.517 657.624 491.698C661.198 489.88 718.317 477.099 734.882 478.134C751.448 479.169 774.248 494.15 774.248 494.15C774.248 494.15 750.74 485.069 729.821 487.167C708.902 489.265 654.711 506.124 654.711 506.124Z" fill="black" stroke="black" stroke-width="4" stroke-linecap="round" stroke-linejoin="round"/></g></g>    </g><g id="notion-avatar-glasses">      <!--?xml version="1.0" encoding="UTF-8"?-->    <title>Glasses/ 0</title>    <g id="Glasses/-0" stroke="none" stroke-width="1" fill="none" fill-rule="evenodd"/>    </g><g id="notion-avatar-hair">      <g id="Hairstyle/ 42"><path id="Path" fill-rule="evenodd" clip-rule="evenodd" d="M524 224C538 226.667 547.667 230.667 553 236C558.333 241.333 562.667 250.667 566 264C566 264 582 243 584 238C586 233 586 210 586 210C586 210 594.605 216.518 596 227C597.395 237.482 595.814 237.139 594 249C604.667 254.333 615.121 249.013 621.788 243.013C628.455 237.013 632.788 229.68 634.788 221.013C641.017 224.834 645.683 229.168 648.788 234.013C651.893 238.859 655.153 246.896 658.567 258.125C665.419 255.141 669.949 252.207 672.159 249.323C674.368 246.439 675.967 241.372 676.956 234.121C678.787 238.211 679.853 241.411 680.154 243.722C680.455 246.033 678.212 271.784 677 281C682.536 279.104 686.703 278.897 692 275C699.333 269.605 705 261 705 261C705 261 705.85 275.428 705 285C704.15 294.572 700.141 315.734 700.141 315.734C700.141 315.734 731.918 310.132 734.788 297.013C736.702 288.268 734.247 279.588 723 275C737 275 745.471 277.269 752.108 284.529C762.064 295.42 757.788 309.013 750.788 318.013C746.121 324.013 740.788 328.347 734.788 331.013C749.943 334.967 759.563 333.71 763.646 327.244L763.788 327.013C767.788 320.347 776.121 312.68 788.788 304.013L788.449 305.898C783.014 336.438 782.359 355.186 786.486 362.142C786.486 362.142 792.952 358.462 795 356C800.369 349.546 801.669 345.497 801 352C799.575 365.855 787.832 385.38 780.102 390.538C775.593 393.546 768.502 395.556 758.828 396.567C757.847 398.597 756.809 400.567 755.717 402.478C758.235 408.042 764.663 410.216 775 409C788.262 407.439 798.262 400.106 805 387C805 399.667 799.333 411 788 421L786.985 421.89C770.483 436.271 757.694 442.784 734 438C729.85 437.162 726.25 436.092 723.2 434.79C715.672 438.987 707.271 442.25 698 444.579L695.953 445.088C686.406 447.438 672.404 450.562 656.009 453.474C654.179 458.121 652.083 462.012 648 464C641.181 467.32 630.383 465.75 615.605 459.288C613.208 459.546 610.797 459.789 608.377 460.014L606.958 460.875C595.06 468.16 589.408 473.201 590 476C591.225 481.788 600.892 485.788 619 488L617.263 488.404C601.757 491.961 589.67 493.494 581 493C572.009 492.488 562.158 489.54 551.447 484.154L549.835 484.692C538.795 488.416 532.85 491.185 532 493C529.814 497.668 528.147 502.335 527 507L495.482 484.154C487.649 483.633 478.821 480.915 469 476C459.179 471.085 452.549 466.069 449.112 460.95C431.497 465.117 421.104 470.185 417.932 476.153C413.174 485.105 409.432 486.597 421 492C428.712 495.602 439.905 495.602 454.579 492L453.239 493.008C438.585 503.948 423.678 504.443 412 503C400.322 501.557 388.999 489.606 388.999 489.606L389.407 491.845C391.379 502.861 392.365 511.159 392.365 516.739C392.365 528.233 383.924 572.725 367.044 650.214L366 655L328.117 564.825H287.146C271.78 507.747 268.106 468.653 276.123 447.542C283.951 426.927 303.884 411.158 335.92 400.236L334 397C326.231 383.602 339.512 379.865 343.843 357.79C348.173 335.715 357.788 343.013 372.788 323.013C372.788 323.013 393 295 433 275C473 255 504.651 265.527 521.788 264.013C538.926 262.5 543 272 543 253C543 240.333 536.667 230.667 524 224Z" fill="black" stroke="black" stroke-width="12" stroke-linecap="round" stroke-linejoin="round"/></g>    </g><g id="notion-avatar-accessories">      <g id="Accessories/ 14"><g id="Group"><path id="Path" d="M287.695 658.293C276.76 647.358 276.76 629.63 287.695 618.695C298.63 607.76 316.358 607.76 327.293 618.695C337.267 628.669 338.143 644.297 329.921 655.264L362.083 687.426C366.925 692.268 366.925 700.119 362.083 704.962C357.24 709.804 349.389 709.804 344.547 704.962L306.04 666.456C299.371 666.111 292.792 663.389 287.695 658.293Z" fill="white" stroke="black" stroke-width="8" stroke-linecap="round" stroke-linejoin="round"/><rect id="Rectangle" width="8" height="16" rx="4" transform="matrix(-0.707107 0.707107 0.707107 0.707107 295.615 623.221)" fill="black"/></g></g>    </g><g id="notion-avatar-details">      <!--?xml version="1.0" encoding="UTF-8"?-->    <title>Details/ 0</title>    <g id="Details/-0" stroke="none" stroke-width="1" fill="none" fill-rule="evenodd"/>    </g><g id="notion-avatar-beard">      <g id="Beard/ 16"><g id="Shape"><path fill-rule="evenodd" clip-rule="evenodd" d="M679 848L692 872L690.233 873.596C661.493 899.412 638.416 913.214 621 915C603.584 916.786 577.305 911.7 542.163 899.741L540 899L547 872C571 880 595 882 619 878C642.7 874.05 662.499 864.249 678.398 848.597L679 848ZM645 789C639 793 634.916 796.484 632.747 799.452L632.158 800.248C629.316 804.036 627.875 805 623 805C618.464 805 617.195 804.165 614.325 800.997L612.947 799.452C610.316 796.484 606.333 793 601 789C607.114 790.333 614.447 791 623 791C631.553 791 638.886 790.333 645 789Z" fill="black"/><path d="M679 848L684.276 845.142C683.376 843.481 681.745 842.34 679.876 842.064C678.006 841.788 676.116 842.41 674.774 843.741L679 848ZM692 872L696.022 876.453C698.076 874.597 698.594 871.577 697.276 869.142L692 872ZM690.233 873.596L694.243 878.059C694.247 878.056 694.251 878.052 694.255 878.048L690.233 873.596ZM542.163 899.741L540.218 905.417L540.23 905.421L542.163 899.741ZM540 899L534.192 897.494C533.405 900.53 535.089 903.66 538.056 904.676L540 899ZM547 872L548.897 866.308C547.32 865.782 545.596 865.934 544.136 866.728C542.675 867.521 541.609 868.885 541.192 870.494L547 872ZM619 878L618.014 872.082L619 878ZM678.398 848.597L682.607 852.873C682.613 852.867 682.619 852.862 682.624 852.856L678.398 848.597ZM645 789L648.328 793.992C650.728 792.392 651.65 789.311 650.523 786.656C649.396 784.001 646.54 782.523 643.722 783.138L645 789ZM632.747 799.452L637.571 803.019C637.578 803.01 637.584 803.001 637.591 802.992L632.747 799.452ZM632.158 800.248L636.958 803.848C636.966 803.837 636.975 803.826 636.983 803.815L632.158 800.248ZM614.325 800.997L609.847 804.99C609.857 805.002 609.867 805.014 609.878 805.025L614.325 800.997ZM612.947 799.452L608.457 803.432C608.461 803.436 608.465 803.44 608.468 803.445L612.947 799.452ZM601 789L602.278 783.138C599.521 782.537 596.718 783.938 595.544 786.504C594.37 789.07 595.143 792.107 597.4 793.8L601 789ZM673.724 850.858L686.724 874.858L697.276 869.142L684.276 845.142L673.724 850.858ZM687.978 867.547L686.212 869.143L694.255 878.048L696.022 876.453L687.978 867.547ZM686.224 869.132C672.028 881.884 659.389 891.522 648.291 898.16C637.14 904.828 627.882 908.263 620.388 909.031L621.612 920.969C631.534 919.951 642.522 915.592 654.45 908.459C666.429 901.295 679.699 891.124 694.243 878.059L686.224 869.132ZM620.388 909.031C604.354 910.676 579.135 905.985 544.096 894.061L540.23 905.421C575.475 917.415 602.814 922.897 621.612 920.969L620.388 909.031ZM544.107 894.065L541.944 893.324L538.056 904.676L540.218 905.417L544.107 894.065ZM545.808 900.506L552.808 873.506L541.192 870.494L534.192 897.494L545.808 900.506ZM545.103 877.692C569.993 885.989 594.982 888.086 619.986 883.918L618.014 872.082C595.018 875.914 572.007 874.011 548.897 866.308L545.103 877.692ZM619.986 883.918C644.805 879.782 665.76 869.459 682.607 852.873L674.189 844.321C659.239 859.04 640.595 868.318 618.014 872.082L619.986 883.918ZM682.624 852.856L683.226 852.259L674.774 843.741L674.172 844.338L682.624 852.856ZM641.672 784.008C635.538 788.097 630.719 792.058 627.902 795.911L637.591 802.992C639.112 800.91 642.462 797.903 648.328 793.992L641.672 784.008ZM627.922 795.885L627.334 796.68L636.983 803.815L637.571 803.019L627.922 795.885ZM627.358 796.647C625.965 798.505 625.563 798.726 625.493 798.763C625.482 798.77 625.459 798.781 625.408 798.798C625.353 798.816 625.247 798.847 625.066 798.878C624.676 798.945 624.052 799 623 799V811C625.71 811 628.521 810.765 631.19 809.325C633.77 807.934 635.51 805.779 636.958 803.848L627.358 796.647ZM623 799C622.022 799 621.442 798.953 621.079 798.895C620.76 798.844 620.669 798.794 620.662 798.791C620.57 798.746 620.215 798.562 618.772 796.969L609.878 805.025C611.305 806.6 613.019 808.418 615.413 809.582C617.903 810.794 620.467 811 623 811V799ZM618.803 797.004L617.425 795.458L608.468 803.445L609.847 804.99L618.803 797.004ZM617.436 795.471C614.417 792.066 610.07 788.303 604.6 784.2L597.4 793.8C602.596 797.697 606.214 800.902 608.457 803.432L617.436 795.471ZM599.722 794.862C606.376 796.314 614.162 797 623 797V785C614.732 785 607.851 784.353 602.278 783.138L599.722 794.862ZM623 797C631.838 797 639.624 796.314 646.278 794.862L643.722 783.138C638.149 784.353 631.268 785 623 785V797Z" fill="black"/></g></g>    </g>      </g>      </svg>