<svg width="455" height="400" viewBox="0 0 455 400" xmlns="http://www.w3.org/2000/svg"><mask id="satori_om-id"><rect x="0" y="0" width="455" height="400" fill="#fff"/></mask><rect x="0" y="0" width="455" height="400" fill="#fff"/><mask id="satori_om-id-0"><rect x="0" y="17" width="455" height="366" fill="#fff"/></mask><rect x="0" y="17" width="455" height="366" fill="#f9fafb"/><mask id="satori_om-id-0-0"><rect x="0" y="17" width="455" height="366" fill="#fff"/></mask><mask id="satori_om-id-0-0-0"><rect x="32" y="69" width="391" height="180" fill="#fff"/></mask><mask id="satori_om-id-0-0-0-0"><rect x="32" y="69" width="391" height="108" fill="#fff"/></mask><path fill="#111827" d="M38.8 88.2L39.2 103.4L34.5 103.4L34.9 88.2L38.8 88.2ZM36.9 81.3L36.9 81.3Q37.9 81.3 38.6 82.1Q39.4 82.8 39.4 83.9L39.4 83.9Q39.4 84.9 38.6 85.7Q37.9 86.4 36.9 86.4L36.9 86.4Q35.8 86.4 35.1 85.7Q34.3 84.9 34.3 83.9L34.3 83.9Q34.3 83.2 34.6 82.6Q35.0 82.0 35.6 81.7Q36.2 81.3 36.9 81.3ZM46.7 79.9L40.0 79.9L40.0 76.1L57.9 76.1L57.9 79.9L51.2 79.9L51.2 97.9L46.7 97.9L46.7 79.9ZM62.9 97.9L58.3 97.9L58.3 81.5L62.7 81.5L62.7 84.4L62.9 84.4Q63.4 82.9 64.4 82.1Q65.5 81.3 66.8 81.3L66.8 81.3Q67.2 81.3 67.6 81.4Q68.0 81.4 68.3 81.5L68.3 81.5L68.3 85.5Q68.0 85.4 67.4 85.3Q66.8 85.3 66.4 85.3L66.4 85.3Q65.4 85.3 64.6 85.7Q63.8 86.1 63.3 86.9Q62.9 87.6 62.9 88.7L62.9 88.7L62.9 97.9ZM74.1 98.2L74.1 98.2Q72.5 98.2 71.3 97.7Q70.1 97.1 69.3 96.0Q68.6 95.0 68.6 93.3L68.6 93.3Q68.6 92.0 69.1 91.0Q69.6 90.1 70.5 89.6Q71.4 89.0 72.5 88.7Q73.6 88.4 74.8 88.3L74.8 88.3Q76.2 88.2 77.1 88.0Q78.0 87.9 78.4 87.6Q78.7 87.4 78.7 86.8L78.7 86.8L78.7 86.8Q78.7 85.8 78.1 85.2Q77.5 84.6 76.3 84.6L76.3 84.6Q75.1 84.6 74.4 85.2Q73.6 85.7 73.4 86.5L73.4 86.5L69.2 86.2Q69.5 84.7 70.5 83.6Q71.4 82.5 72.9 81.9Q74.4 81.3 76.3 81.3L76.3 81.3Q77.7 81.3 79.0 81.7Q80.2 82.0 81.2 82.6Q82.2 83.3 82.7 84.4Q83.3 85.4 83.3 86.9L83.3 86.9L83.3 97.9L79.0 97.9L79.0 95.6L78.9 95.6Q78.5 96.4 77.8 97.0Q77.1 97.6 76.2 97.9Q75.3 98.2 74.1 98.2ZM75.4 95.1L75.4 95.1Q76.4 95.1 77.1 94.7Q77.9 94.3 78.3 93.6Q78.8 92.9 78.8 92.1L78.8 92.1L78.8 90.3Q78.6 90.5 78.2 90.6Q77.8 90.7 77.4 90.8Q76.9 90.9 76.5 90.9Q76.0 91.0 75.6 91.1L75.6 91.1Q74.8 91.2 74.2 91.4Q73.6 91.7 73.3 92.1Q73.0 92.6 73.0 93.2L73.0 93.2Q73.0 94.1 73.6 94.6Q74.3 95.1 75.4 95.1ZM90.6 88.4L90.6 88.4L90.6 97.9L86.1 97.9L86.1 81.5L90.4 81.5L90.4 84.4L90.6 84.4Q91.1 83.0 92.4 82.2Q93.7 81.3 95.5 81.3L95.5 81.3Q97.2 81.3 98.5 82.1Q99.7 82.8 100.4 84.2Q101.1 85.6 101.1 87.5L101.1 87.5L101.1 97.9L96.6 97.9L96.6 88.3Q96.6 86.8 95.8 86.0Q95.1 85.1 93.7 85.1L93.7 85.1Q92.8 85.1 92.1 85.5Q91.4 85.9 91.0 86.6Q90.6 87.4 90.6 88.4ZM117.6 86.2L117.6 86.2L113.4 86.5Q113.3 85.9 113.0 85.5Q112.6 85.1 112.0 84.8Q111.5 84.5 110.7 84.5L110.7 84.5Q109.6 84.5 108.9 85.0Q108.2 85.4 108.2 86.2L108.2 86.2Q108.2 86.8 108.7 87.2Q109.1 87.6 110.3 87.8L110.3 87.8L113.2 88.4Q115.6 88.9 116.8 90.0Q118.0 91.1 118.0 92.8L118.0 92.8Q118.0 94.4 117.0 95.7Q116.1 96.9 114.4 97.6Q112.8 98.2 110.7 98.2L110.7 98.2Q107.4 98.2 105.5 96.9Q103.6 95.5 103.2 93.2L103.2 93.2L107.7 92.9Q107.9 93.9 108.7 94.4Q109.5 95.0 110.7 95.0L110.7 95.0Q111.9 95.0 112.6 94.5Q113.3 94.0 113.3 93.3L113.3 93.3Q113.3 92.7 112.8 92.3Q112.3 91.9 111.2 91.7L111.2 91.7L108.4 91.1Q106.0 90.6 104.8 89.4Q103.7 88.3 103.7 86.4L103.7 86.4Q103.7 84.8 104.5 83.7Q105.4 82.6 107.0 82.0Q108.5 81.3 110.6 81.3L110.6 81.3Q113.7 81.3 115.5 82.6Q117.3 84.0 117.6 86.2ZM118.8 81.5L128.9 81.5L128.9 85.0L118.8 85.0L118.8 81.5ZM125.6 97.9L121.1 97.9L121.1 80.4Q121.1 78.6 121.8 77.4Q122.5 76.2 123.7 75.7Q124.9 75.1 126.4 75.1L126.4 75.1Q127.5 75.1 128.4 75.2Q129.2 75.4 129.7 75.5L129.7 75.5L128.8 78.9Q128.6 78.8 128.2 78.8Q127.8 78.7 127.4 78.7L127.4 78.7Q126.4 78.7 126.0 79.2Q125.6 79.6 125.6 80.4L125.6 80.4L125.6 97.9ZM137.7 98.2L137.7 98.2Q135.2 98.2 133.4 97.2Q131.6 96.1 130.6 94.2Q129.7 92.3 129.7 89.8L129.7 89.8Q129.7 87.3 130.6 85.4Q131.6 83.5 133.4 82.4Q135.2 81.3 137.7 81.3L137.7 81.3Q140.2 81.3 142.0 82.4Q143.8 83.5 144.8 85.4Q145.8 87.3 145.8 89.8L145.8 89.8Q145.8 92.3 144.8 94.2Q143.8 96.1 142.0 97.2Q140.2 98.2 137.7 98.2ZM137.7 94.7L137.7 94.7Q138.9 94.7 139.6 94.1Q140.4 93.4 140.8 92.3Q141.1 91.2 141.1 89.8L141.1 89.8Q141.1 88.3 140.8 87.2Q140.4 86.1 139.6 85.4Q138.9 84.8 137.7 84.8L137.7 84.8Q136.6 84.8 135.8 85.4Q135.0 86.1 134.7 87.2Q134.3 88.3 134.3 89.8L134.3 89.8Q134.3 91.2 134.7 92.3Q135.0 93.4 135.8 94.1Q136.6 94.7 137.7 94.7ZM152.5 97.9L148.0 97.9L148.0 81.5L152.4 81.5L152.4 84.4L152.5 84.4Q153.0 82.9 154.0 82.1Q155.1 81.3 156.5 81.3L156.5 81.3Q156.8 81.3 157.2 81.4Q157.6 81.4 157.9 81.5L157.9 81.5L157.9 85.5Q157.6 85.4 157.0 85.3Q156.5 85.3 156.0 85.3L156.0 85.3Q155.0 85.3 154.2 85.7Q153.4 86.1 153.0 86.9Q152.5 87.6 152.5 88.7L152.5 88.7L152.5 97.9ZM164.0 97.9L159.5 97.9L159.5 81.5L163.8 81.5L163.8 84.4L164 84.4Q164.5 83.0 165.7 82.2Q166.9 81.3 168.6 81.3L168.6 81.3Q170.2 81.3 171.4 82.2Q172.6 83.0 173.0 84.4L173.0 84.4L173.2 84.4Q173.7 83.0 175.0 82.2Q176.3 81.3 178.1 81.3L178.1 81.3Q180.4 81.3 181.8 82.8Q183.3 84.2 183.3 86.9L183.3 86.9L183.3 97.9L178.7 97.9L178.7 87.8Q178.7 86.4 178.0 85.8Q177.3 85.1 176.2 85.1L176.2 85.1Q175.0 85.1 174.3 85.9Q173.6 86.6 173.6 87.9L173.6 87.9L173.6 97.9L169.2 97.9L169.2 87.7Q169.2 86.5 168.5 85.8Q167.8 85.1 166.7 85.1L166.7 85.1Q165.9 85.1 165.3 85.4Q164.7 85.8 164.4 86.5Q164.0 87.2 164.0 88.1L164.0 88.1L164.0 97.9ZM190.8 98.2L190.8 98.2Q189.2 98.2 188.0 97.7Q186.7 97.1 186.0 96.0Q185.3 95.0 185.3 93.3L185.3 93.3Q185.3 92.0 185.8 91.0Q186.3 90.1 187.2 89.6Q188.1 89.0 189.2 88.7Q190.3 88.4 191.5 88.3L191.5 88.3Q192.9 88.2 193.8 88.0Q194.6 87.9 195.0 87.6Q195.4 87.4 195.4 86.8L195.4 86.8L195.4 86.8Q195.4 85.8 194.8 85.2Q194.2 84.6 193.0 84.6L193.0 84.6Q191.8 84.6 191.1 85.2Q190.3 85.7 190.1 86.5L190.1 86.5L185.9 86.2Q186.2 84.7 187.2 83.6Q188.1 82.5 189.6 81.9Q191.1 81.3 193.0 81.3L193.0 81.3Q194.4 81.3 195.6 81.7Q196.9 82.0 197.9 82.6Q198.8 83.3 199.4 84.4Q200.0 85.4 200.0 86.9L200.0 86.9L200.0 97.9L195.7 97.9L195.7 95.6L195.5 95.6Q195.1 96.4 194.5 97.0Q193.8 97.6 192.9 97.9Q192.0 98.2 190.8 98.2ZM192.1 95.1L192.1 95.1Q193.1 95.1 193.8 94.7Q194.6 94.3 195.0 93.6Q195.5 92.9 195.5 92.1L195.5 92.1L195.5 90.3Q195.3 90.5 194.9 90.6Q194.5 90.7 194.1 90.8Q193.6 90.9 193.1 90.9Q192.7 91.0 192.3 91.1L192.3 91.1Q191.5 91.2 190.9 91.4Q190.3 91.7 190.0 92.1Q189.7 92.6 189.7 93.2L189.7 93.2Q189.7 94.1 190.3 94.6Q191.0 95.1 192.1 95.1Z M212.6 81.5L222.4 81.5L222.4 85.0L212.6 85.0L212.6 81.5ZM214.8 93.5L214.8 77.6L219.4 77.6L219.4 92.9Q219.4 93.5 219.6 93.9Q219.7 94.2 220.1 94.3Q220.4 94.5 220.9 94.5L220.9 94.5Q221.2 94.5 221.5 94.4Q221.9 94.4 222.0 94.3L222.0 94.3L222.7 97.7Q222.4 97.8 221.8 98.0Q221.2 98.1 220.3 98.1L220.3 98.1Q218.6 98.2 217.4 97.7Q216.2 97.2 215.5 96.1Q214.8 95.1 214.8 93.5L214.8 93.5ZM235.1 90.9L235.1 90.9L235.1 81.5L239.7 81.5L239.7 97.9L235.3 97.9L235.3 94.9L235.1 94.9Q234.6 96.4 233.3 97.2Q232.0 98.1 230.2 98.1L230.2 98.1Q228.5 98.1 227.3 97.4Q226.0 96.6 225.4 95.3Q224.7 93.9 224.6 92.0L224.6 92.0L224.6 81.5L229.2 81.5L229.2 91.2Q229.2 92.6 230.0 93.4Q230.7 94.3 232.0 94.3L232.0 94.3Q232.8 94.3 233.5 93.9Q234.3 93.5 234.7 92.8Q235.1 92.0 235.1 90.9Z M253.3 88.4L253.3 88.4L253.3 97.9L248.8 97.9L248.8 81.5L253.1 81.5L253.1 84.4L253.3 84.4Q253.8 83.0 255.1 82.2Q256.4 81.3 258.2 81.3L258.2 81.3Q259.9 81.3 261.2 82.1Q262.4 82.8 263.1 84.2Q263.8 85.6 263.8 87.5L263.8 87.5L263.8 97.9L259.3 97.9L259.3 88.3Q259.3 86.8 258.5 86.0Q257.8 85.1 256.4 85.1L256.4 85.1Q255.5 85.1 254.8 85.5Q254.1 85.9 253.7 86.6Q253.3 87.4 253.3 88.4ZM274.1 98.2L274.1 98.2Q271.6 98.2 269.8 97.2Q268.0 96.2 267.0 94.3Q266.0 92.4 266.0 89.8L266.0 89.8Q266.0 87.3 267.0 85.4Q268.0 83.5 269.7 82.4Q271.5 81.3 273.9 81.3L273.9 81.3Q275.6 81.3 277.0 81.8Q278.4 82.4 279.4 83.4Q280.5 84.4 281.0 86.0Q281.6 87.6 281.6 89.6L281.6 89.6L281.6 90.9L267.8 90.9L267.8 88.1L277.4 88.1Q277.4 87.1 276.9 86.3Q276.5 85.6 275.8 85.2Q275 84.7 274.0 84.7L274.0 84.7Q273.0 84.7 272.2 85.2Q271.4 85.7 270.9 86.5Q270.5 87.3 270.5 88.2L270.5 88.2L270.5 90.9Q270.5 92.1 270.9 93.0Q271.4 93.9 272.2 94.4Q273.1 94.8 274.2 94.8L274.2 94.8Q274.9 94.8 275.6 94.6Q276.2 94.4 276.7 94.0Q277.1 93.6 277.3 92.9L277.3 92.9L281.5 93.2Q281.2 94.7 280.2 95.9Q279.2 97.0 277.7 97.6Q276.1 98.2 274.1 98.2ZM291.2 104.4L291.2 104.4Q289.0 104.4 287.4 103.8Q285.9 103.2 284.9 102.1Q284.0 101.1 283.7 99.8L283.7 99.8L287.9 99.3Q288.1 99.8 288.5 100.2Q289.0 100.6 289.6 100.9Q290.3 101.1 291.3 101.1L291.3 101.1Q292.8 101.1 293.8 100.4Q294.7 99.7 294.7 98.0L294.7 98.0L294.7 95.0L294.5 95.0Q294.2 95.7 293.6 96.3Q293.0 96.9 292.1 97.3Q291.2 97.7 289.9 97.7L289.9 97.7Q288.0 97.7 286.5 96.8Q285.0 96.0 284.1 94.2Q283.2 92.4 283.2 89.7L283.2 89.7Q283.2 86.9 284.1 85.1Q285.0 83.2 286.5 82.3Q288.1 81.3 289.9 81.3L289.9 81.3Q291.2 81.3 292.2 81.8Q293.1 82.3 293.7 82.9Q294.2 83.6 294.5 84.3L294.5 84.3L294.7 84.3L294.7 81.5L299.2 81.5L299.2 98.1Q299.2 100.2 298.2 101.6Q297.2 103.0 295.4 103.7Q293.6 104.4 291.2 104.4ZM291.3 94.3L291.3 94.3Q292.4 94.3 293.2 93.7Q293.9 93.2 294.3 92.1Q294.7 91.1 294.7 89.7L294.7 89.7Q294.7 88.2 294.3 87.2Q293.9 86.1 293.2 85.5Q292.4 84.9 291.3 84.9L291.3 84.9Q290.2 84.9 289.4 85.5Q288.7 86.1 288.3 87.2Q287.9 88.3 287.9 89.7L287.9 89.7Q287.9 91.1 288.3 92.1Q288.7 93.1 289.4 93.7Q290.2 94.3 291.3 94.3ZM309.5 98.2L309.5 98.2Q307.0 98.2 305.2 97.2Q303.4 96.1 302.4 94.2Q301.4 92.3 301.4 89.8L301.4 89.8Q301.4 87.3 302.4 85.4Q303.4 83.5 305.2 82.4Q307.0 81.3 309.5 81.3L309.5 81.3Q312.0 81.3 313.8 82.4Q315.6 83.5 316.6 85.4Q317.5 87.3 317.5 89.8L317.5 89.8Q317.5 92.3 316.6 94.2Q315.6 96.1 313.8 97.2Q312.0 98.2 309.5 98.2ZM309.5 94.7L309.5 94.7Q310.6 94.7 311.4 94.1Q312.1 93.4 312.5 92.3Q312.9 91.2 312.9 89.8L312.9 89.8Q312.9 88.3 312.5 87.2Q312.1 86.1 311.4 85.4Q310.6 84.8 309.5 84.8L309.5 84.8Q308.4 84.8 307.6 85.4Q306.8 86.1 306.4 87.2Q306.0 88.3 306.0 89.8L306.0 89.8Q306.0 91.2 306.4 92.3Q306.8 93.4 307.6 94.1Q308.4 94.7 309.5 94.7ZM327.1 98.2L327.1 98.2Q324.6 98.2 322.8 97.2Q321.0 96.1 320.0 94.2Q319.1 92.3 319.1 89.8L319.1 89.8Q319.1 87.3 320.1 85.4Q321.0 83.5 322.8 82.4Q324.6 81.3 327.1 81.3L327.1 81.3Q329.3 81.3 330.9 82.1Q332.5 82.9 333.4 84.3Q334.3 85.7 334.4 87.6L334.4 87.6L330.2 87.6Q330.0 86.4 329.2 85.6Q328.4 84.9 327.2 84.9L327.2 84.9Q326.1 84.9 325.4 85.4Q324.6 86.0 324.1 87.1Q323.7 88.2 323.7 89.7L323.7 89.7Q323.7 91.3 324.1 92.4Q324.6 93.5 325.3 94.1Q326.1 94.6 327.2 94.6L327.2 94.6Q328.0 94.6 328.6 94.3Q329.2 94.0 329.6 93.4Q330.0 92.8 330.2 91.9L330.2 91.9L334.4 91.9Q334.3 93.8 333.4 95.2Q332.5 96.6 330.9 97.4Q329.3 98.2 327.1 98.2ZM341.2 97.9L336.6 97.9L336.6 81.5L341.2 81.5L341.2 97.9ZM338.9 79.4L338.9 79.4Q337.9 79.4 337.2 78.8Q336.4 78.1 336.4 77.1L336.4 77.1Q336.4 76.2 337.2 75.5Q337.9 74.8 338.9 74.8L338.9 74.8Q339.9 74.8 340.6 75.5Q341.3 76.2 341.3 77.1L341.3 77.1Q341.3 78.1 340.6 78.8Q339.9 79.4 338.9 79.4ZM351.4 98.2L351.4 98.2Q348.9 98.2 347.1 97.2Q345.3 96.1 344.3 94.2Q343.4 92.3 343.4 89.8L343.4 89.8Q343.4 87.3 344.3 85.4Q345.3 83.5 347.1 82.4Q348.9 81.3 351.4 81.3L351.4 81.3Q353.9 81.3 355.7 82.4Q357.5 83.5 358.5 85.4Q359.5 87.3 359.5 89.8L359.5 89.8Q359.5 92.3 358.5 94.2Q357.5 96.1 355.7 97.2Q353.9 98.2 351.4 98.2ZM351.4 94.7L351.4 94.7Q352.6 94.7 353.3 94.1Q354.1 93.4 354.5 92.3Q354.9 91.2 354.9 89.8L354.9 89.8Q354.9 88.3 354.5 87.2Q354.1 86.1 353.3 85.4Q352.6 84.8 351.4 84.8L351.4 84.8Q350.3 84.8 349.5 85.4Q348.8 86.1 348.4 87.2Q348.0 88.3 348.0 89.8L348.0 89.8Q348.0 91.2 348.4 92.3Q348.8 93.4 349.5 94.1Q350.3 94.7 351.4 94.7Z M375.3 98.2L375.3 98.2Q372.8 98.2 371.0 97.2Q369.2 96.1 368.2 94.2Q367.2 92.3 367.2 89.8L367.2 89.8Q367.2 87.3 368.2 85.4Q369.2 83.5 371.0 82.4Q372.8 81.3 375.3 81.3L375.3 81.3Q377.4 81.3 379.0 82.1Q380.6 82.9 381.6 84.3Q382.5 85.7 382.6 87.6L382.6 87.6L378.3 87.6Q378.1 86.4 377.4 85.6Q376.6 84.9 375.3 84.9L375.3 84.9Q374.3 84.9 373.5 85.4Q372.7 86.0 372.3 87.1Q371.8 88.2 371.8 89.7L371.8 89.7Q371.8 91.3 372.3 92.4Q372.7 93.5 373.5 94.1Q374.3 94.6 375.3 94.6L375.3 94.6Q376.1 94.6 376.7 94.3Q377.4 94.0 377.8 93.4Q378.2 92.8 378.3 91.9L378.3 91.9L382.6 91.9Q382.5 93.8 381.6 95.2Q380.7 96.6 379.1 97.4Q377.5 98.2 375.3 98.2ZM392.2 98.2L392.2 98.2Q389.7 98.2 387.9 97.2Q386.1 96.1 385.1 94.2Q384.1 92.3 384.1 89.8L384.1 89.8Q384.1 87.3 385.1 85.4Q386.1 83.5 387.9 82.4Q389.7 81.3 392.2 81.3L392.2 81.3Q394.6 81.3 396.4 82.4Q398.2 83.5 399.2 85.4Q400.2 87.3 400.2 89.8L400.2 89.8Q400.2 92.3 399.2 94.2Q398.2 96.1 396.4 97.2Q394.6 98.2 392.2 98.2ZM392.2 94.7L392.2 94.7Q393.3 94.7 394.1 94.1Q394.8 93.4 395.2 92.3Q395.6 91.2 395.6 89.8L395.6 89.8Q395.6 88.3 395.2 87.2Q394.8 86.1 394.1 85.4Q393.3 84.8 392.2 84.8L392.2 84.8Q391.0 84.8 390.3 85.4Q389.5 86.1 389.1 87.2Q388.7 88.3 388.7 89.8L388.7 89.8Q388.7 91.2 389.1 92.3Q389.5 93.4 390.3 94.1Q391.0 94.7 392.2 94.7ZM407.0 88.4L407.0 88.4L407.0 97.9L402.4 97.9L402.4 81.5L406.7 81.5L406.7 84.4L406.9 84.4Q407.5 83.0 408.8 82.2Q410.0 81.3 411.9 81.3L411.9 81.3Q413.6 81.3 414.8 82.1Q416.1 82.8 416.8 84.2Q417.5 85.6 417.5 87.5L417.5 87.5L417.5 97.9L413.0 97.9L413.0 88.3Q413.0 86.8 412.2 86.0Q411.4 85.1 410.1 85.1L410.1 85.1Q409.1 85.1 408.4 85.5Q407.7 85.9 407.4 86.6Q407.0 87.4 407.0 88.4Z M44.3 126.9L44.3 126.9L44.3 117.5L48.8 117.5L48.8 133.9L44.5 133.9L44.5 130.9L44.3 130.9Q43.8 132.4 42.5 133.2Q41.2 134.1 39.4 134.1L39.4 134.1Q37.7 134.1 36.5 133.4Q35.2 132.6 34.5 131.3Q33.8 129.9 33.8 128.0L33.8 128.0L33.8 117.5L38.3 117.5L38.3 127.2Q38.4 128.6 39.1 129.4Q39.9 130.3 41.2 130.3L41.2 130.3Q42.0 130.3 42.7 129.9Q43.4 129.5 43.9 128.8Q44.3 128.0 44.3 126.9ZM56.3 124.4L56.3 124.4L56.3 133.9L51.7 133.9L51.7 117.5L56.0 117.5L56.0 120.4L56.2 120.4Q56.8 119.0 58.1 118.2Q59.3 117.3 61.2 117.3L61.2 117.3Q62.9 117.3 64.1 118.1Q65.4 118.8 66.1 120.2Q66.8 121.6 66.8 123.5L66.8 123.5L66.8 133.9L62.3 133.9L62.3 124.3Q62.3 122.8 61.5 122.0Q60.7 121.1 59.4 121.1L59.4 121.1Q58.4 121.1 57.7 121.5Q57.0 121.9 56.7 122.6Q56.3 123.4 56.3 124.4ZM74.3 134.2L74.3 134.2Q72.7 134.2 71.5 133.7Q70.3 133.1 69.6 132.0Q68.9 131.0 68.9 129.3L68.9 129.3Q68.9 128.0 69.4 127.0Q69.9 126.1 70.7 125.6Q71.6 125.0 72.7 124.7Q73.8 124.4 75.0 124.3L75.0 124.3Q76.4 124.2 77.3 124.0Q78.2 123.9 78.6 123.6Q79.0 123.4 79.0 122.8L79.0 122.8L79.0 122.8Q79.0 121.8 78.3 121.2Q77.7 120.6 76.5 120.6L76.5 120.6Q75.3 120.6 74.6 121.2Q73.9 121.7 73.6 122.5L73.6 122.5L69.4 122.2Q69.7 120.7 70.7 119.6Q71.6 118.5 73.1 117.9Q74.6 117.3 76.6 117.3L76.6 117.3Q77.9 117.3 79.2 117.7Q80.4 118.0 81.4 118.6Q82.4 119.3 82.9 120.4Q83.5 121.4 83.5 122.9L83.5 122.9L83.5 133.9L79.2 133.9L79.2 131.6L79.1 131.6Q78.7 132.4 78.0 133.0Q77.4 133.6 76.4 133.9Q75.5 134.2 74.3 134.2ZM75.6 131.1L75.6 131.1Q76.6 131.1 77.4 130.7Q78.1 130.3 78.6 129.6Q79.0 128.9 79.0 128.1L79.0 128.1L79.0 126.3Q78.8 126.5 78.4 126.6Q78.0 126.7 77.6 126.8Q77.1 126.9 76.7 126.9Q76.2 127.0 75.8 127.1L75.8 127.1Q75.0 127.2 74.4 127.4Q73.8 127.7 73.5 128.1Q73.2 128.6 73.2 129.2L73.2 129.2Q73.2 130.1 73.9 130.6Q74.5 131.1 75.6 131.1Z M97.0 140.0L92.5 140.0L92.5 117.5L97.0 117.5L97.0 120.3L97.2 120.3Q97.5 119.6 98.0 118.9Q98.6 118.3 99.5 117.8Q100.4 117.3 101.8 117.3L101.8 117.3Q103.6 117.3 105.1 118.3Q106.6 119.2 107.5 121.1Q108.4 122.9 108.4 125.7L108.4 125.7Q108.4 128.5 107.6 130.4Q106.7 132.2 105.2 133.2Q103.7 134.2 101.8 134.2L101.8 134.2Q100.5 134.2 99.6 133.7Q98.6 133.3 98.1 132.6Q97.5 132.0 97.2 131.3L97.2 131.3L97.0 131.3L97.0 140.0ZM96.9 125.7L96.9 125.7Q96.9 127.2 97.3 128.3Q97.7 129.4 98.5 130.0Q99.3 130.6 100.4 130.6L100.4 130.6Q101.5 130.6 102.2 130.0Q103.0 129.3 103.4 128.2Q103.8 127.2 103.8 125.7L103.8 125.7Q103.8 124.3 103.4 123.2Q103.0 122.2 102.3 121.6Q101.5 120.9 100.4 120.9L100.4 120.9Q99.3 120.9 98.5 121.5Q97.7 122.1 97.3 123.2Q96.9 124.3 96.9 125.7ZM115.4 134.2L115.4 134.2Q113.8 134.2 112.6 133.7Q111.4 133.1 110.6 132.0Q109.9 131.0 109.9 129.3L109.9 129.3Q109.9 128.0 110.4 127.0Q110.9 126.1 111.8 125.6Q112.7 125.0 113.8 124.7Q114.9 124.4 116.1 124.3L116.1 124.3Q117.5 124.2 118.4 124.0Q119.3 123.9 119.7 123.6Q120.1 123.4 120.1 122.8L120.1 122.8L120.1 122.8Q120.1 121.8 119.4 121.2Q118.8 120.6 117.6 120.6L117.6 120.6Q116.4 120.6 115.7 121.2Q114.9 121.7 114.7 122.5L114.7 122.5L110.5 122.2Q110.8 120.7 111.8 119.6Q112.7 118.5 114.2 117.9Q115.7 117.3 117.6 117.3L117.6 117.3Q119.0 117.3 120.3 117.7Q121.5 118.0 122.5 118.6Q123.5 119.3 124.0 120.4Q124.6 121.4 124.6 122.9L124.6 122.9L124.6 133.9L120.3 133.9L120.3 131.6L120.2 131.6Q119.8 132.4 119.1 133.0Q118.4 133.6 117.5 133.9Q116.6 134.2 115.4 134.2ZM116.7 131.1L116.7 131.1Q117.7 131.1 118.4 130.7Q119.2 130.3 119.6 129.6Q120.1 128.9 120.1 128.1L120.1 128.1L120.1 126.3Q119.9 126.5 119.5 126.6Q119.1 126.7 118.7 126.8Q118.2 126.9 117.8 126.9Q117.3 127.0 116.9 127.1L116.9 127.1Q116.1 127.2 115.5 127.4Q114.9 127.7 114.6 128.1Q114.3 128.6 114.3 129.2L114.3 129.2Q114.3 130.1 115.0 130.6Q115.6 131.1 116.7 131.1ZM119.4 115.4L116.2 115.4L118.4 110.6L122.6 110.6L119.4 115.4ZM134.7 140.4L134.7 140.4Q132.5 140.4 131.0 139.8Q129.4 139.2 128.5 138.1Q127.5 137.1 127.3 135.8L127.3 135.8L131.5 135.3Q131.6 135.8 132.1 136.2Q132.5 136.6 133.2 136.9Q133.9 137.1 134.8 137.1L134.8 137.1Q136.3 137.1 137.3 136.4Q138.3 135.7 138.3 134.0L138.3 134.0L138.3 131.0L138.1 131.0Q137.8 131.7 137.2 132.3Q136.6 132.9 135.6 133.3Q134.7 133.7 133.4 133.7L133.4 133.7Q131.6 133.7 130.0 132.8Q128.5 132.0 127.6 130.2Q126.8 128.4 126.8 125.7L126.8 125.7Q126.8 122.9 127.7 121.1Q128.6 119.2 130.1 118.3Q131.6 117.3 133.4 117.3L133.4 117.3Q134.8 117.3 135.7 117.8Q136.6 118.3 137.2 118.9Q137.8 119.6 138.1 120.3L138.1 120.3L138.2 120.3L138.2 117.5L142.7 117.5L142.7 134.1Q142.7 136.2 141.7 137.6Q140.7 139.0 138.9 139.7Q137.1 140.4 134.7 140.4ZM134.8 130.3L134.8 130.3Q135.9 130.3 136.7 129.7Q137.5 129.2 137.9 128.1Q138.3 127.1 138.3 125.7L138.3 125.7Q138.3 124.2 137.9 123.2Q137.5 122.1 136.7 121.5Q135.9 120.9 134.8 120.9L134.8 120.9Q133.7 120.9 132.9 121.5Q132.2 122.1 131.8 123.2Q131.4 124.3 131.4 125.7L131.4 125.7Q131.4 127.1 131.8 128.1Q132.2 129.1 133.0 129.7Q133.7 130.3 134.8 130.3ZM150.1 133.9L145.6 133.9L145.6 117.5L150.1 117.5L150.1 133.9ZM147.9 115.4L147.9 115.4Q146.9 115.4 146.2 114.8Q145.4 114.1 145.4 113.1L145.4 113.1Q145.4 112.2 146.2 111.5Q146.9 110.8 147.9 110.8L147.9 110.8Q148.9 110.8 149.6 111.5Q150.3 112.2 150.3 113.1L150.3 113.1Q150.3 114.1 149.6 114.8Q148.9 115.4 147.9 115.4ZM157.6 124.4L157.6 124.4L157.6 133.9L153.0 133.9L153.0 117.5L157.3 117.5L157.3 120.4L157.5 120.4Q158.1 119.0 159.4 118.2Q160.6 117.3 162.5 117.3L162.5 117.3Q164.2 117.3 165.4 118.1Q166.7 118.8 167.4 120.2Q168.1 121.6 168.1 123.5L168.1 123.5L168.1 133.9L163.6 133.9L163.6 124.3Q163.6 122.8 162.8 122.0Q162.0 121.1 160.7 121.1L160.7 121.1Q159.7 121.1 159.0 121.5Q158.3 121.9 158.0 122.6Q157.6 123.4 157.6 124.4ZM175.6 134.2L175.6 134.2Q174.0 134.2 172.8 133.7Q171.6 133.1 170.9 132.0Q170.2 131.0 170.2 129.3L170.2 129.3Q170.2 128.0 170.7 127.0Q171.2 126.1 172.0 125.6Q172.9 125.0 174.0 124.7Q175.1 124.4 176.3 124.3L176.3 124.3Q177.7 124.2 178.6 124.0Q179.5 123.9 179.9 123.6Q180.3 123.4 180.3 122.8L180.3 122.8L180.3 122.8Q180.3 121.8 179.6 121.2Q179 120.6 177.8 120.6L177.8 120.6Q176.6 120.6 175.9 121.2Q175.2 121.7 174.9 122.5L174.9 122.5L170.7 122.2Q171.1 120.7 172.0 119.6Q172.9 118.5 174.4 117.9Q175.9 117.3 177.9 117.3L177.9 117.3Q179.2 117.3 180.5 117.7Q181.7 118.0 182.7 118.6Q183.7 119.3 184.2 120.4Q184.8 121.4 184.8 122.9L184.8 122.9L184.8 133.9L180.5 133.9L180.5 131.6L180.4 131.6Q180.0 132.4 179.3 133.0Q178.7 133.6 177.7 133.9Q176.8 134.2 175.6 134.2ZM176.9 131.1L176.9 131.1Q177.9 131.1 178.7 130.7Q179.4 130.3 179.9 129.6Q180.3 128.9 180.3 128.1L180.3 128.1L180.3 126.3Q180.1 126.5 179.7 126.6Q179.4 126.7 178.9 126.8Q178.4 126.9 178.0 126.9Q177.5 127.0 177.1 127.1L177.1 127.1Q176.3 127.2 175.8 127.4Q175.2 127.7 174.8 128.1Q174.5 128.6 174.5 129.2L174.5 129.2Q174.5 130.1 175.2 130.6Q175.8 131.1 176.9 131.1Z M201.8 133.9L197.0 133.9L192.6 117.5L197.2 117.5L199.7 128.5L199.8 128.5L202.5 117.5L207.0 117.5L209.7 128.5L209.8 128.5L212.3 117.5L216.9 117.5L212.4 133.9L207.6 133.9L204.8 123.6L204.6 123.6L201.8 133.9ZM225.6 134.2L225.6 134.2Q223.1 134.2 221.3 133.2Q219.4 132.2 218.5 130.3Q217.5 128.4 217.5 125.8L217.5 125.8Q217.5 123.3 218.5 121.4Q219.4 119.5 221.2 118.4Q223.0 117.3 225.4 117.3L225.4 117.3Q227.0 117.3 228.4 117.8Q229.8 118.4 230.9 119.4Q231.9 120.4 232.5 122.0Q233.1 123.6 233.1 125.6L233.1 125.6L233.1 126.9L219.3 126.9L219.3 124.1L228.8 124.1Q228.8 123.1 228.4 122.3Q228.0 121.6 227.2 121.2Q226.5 120.7 225.5 120.7L225.5 120.7Q224.5 120.7 223.7 121.2Q222.9 121.7 222.4 122.5Q222.0 123.3 222.0 124.2L222.0 124.2L222.0 126.9Q222.0 128.1 222.4 129.0Q222.9 129.9 223.7 130.4Q224.5 130.8 225.7 130.8L225.7 130.8Q226.4 130.8 227.1 130.6Q227.7 130.4 228.1 130.0Q228.6 129.6 228.8 128.9L228.8 128.9L233.0 129.2Q232.7 130.7 231.7 131.9Q230.7 133.0 229.2 133.6Q227.6 134.2 225.6 134.2ZM239.9 133.9L235.4 133.9L235.4 112.1L239.9 112.1L239.9 120.3L240.1 120.3Q240.4 119.6 240.9 118.9Q241.5 118.3 242.4 117.8Q243.4 117.3 244.7 117.3L244.7 117.3Q246.5 117.3 248.0 118.3Q249.6 119.2 250.5 121.1Q251.4 122.9 251.4 125.7L251.4 125.7Q251.4 128.5 250.5 130.4Q249.6 132.2 248.1 133.2Q246.6 134.2 244.7 134.2L244.7 134.2Q243.4 134.2 242.5 133.7Q241.6 133.3 241.0 132.6Q240.4 132.0 240.1 131.3L240.1 131.3L239.9 131.3L239.9 133.9ZM239.8 125.7L239.8 125.7Q239.8 127.2 240.3 128.3Q240.7 129.4 241.4 130.0Q242.2 130.6 243.3 130.6L243.3 130.6Q244.4 130.6 245.2 130.0Q245.9 129.3 246.3 128.2Q246.7 127.2 246.7 125.7L246.7 125.7Q246.7 124.3 246.3 123.2Q245.9 122.2 245.2 121.6Q244.4 120.9 243.3 120.9L243.3 120.9Q242.2 120.9 241.4 121.5Q240.7 122.1 240.3 123.2Q239.8 124.3 239.8 125.7Z M38.3 176.0L33.8 176.0L33.8 153.5L38.3 153.5L38.3 156.3L38.5 156.3Q38.8 155.6 39.4 154.9Q39.9 154.3 40.8 153.8Q41.8 153.3 43.1 153.3L43.1 153.3Q44.9 153.3 46.4 154.3Q48.0 155.2 48.9 157.1Q49.8 158.9 49.8 161.7L49.8 161.7Q49.8 164.5 48.9 166.4Q48.0 168.2 46.5 169.2Q45.0 170.2 43.1 170.2L43.1 170.2Q41.8 170.2 40.9 169.7Q40.0 169.3 39.4 168.6Q38.8 168.0 38.5 167.3L38.5 167.3L38.3 167.3L38.3 176.0ZM38.3 161.7L38.3 161.7Q38.3 163.2 38.7 164.3Q39.1 165.4 39.8 166.0Q40.6 166.6 41.7 166.6L41.7 166.6Q42.8 166.6 43.6 166.0Q44.3 165.3 44.7 164.2Q45.1 163.2 45.1 161.7L45.1 161.7Q45.1 160.3 44.7 159.2Q44.3 158.2 43.6 157.6Q42.8 156.9 41.7 156.9L41.7 156.9Q40.6 156.9 39.8 157.5Q39.1 158.1 38.7 159.2Q38.3 160.3 38.3 161.7ZM56.6 169.9L52.0 169.9L52.0 153.5L56.4 153.5L56.4 156.4L56.6 156.4Q57.1 154.9 58.1 154.1Q59.2 153.3 60.5 153.3L60.5 153.3Q60.9 153.3 61.3 153.4Q61.7 153.4 62.0 153.5L62.0 153.5L62.0 157.5Q61.6 157.4 61.1 157.3Q60.5 157.3 60.0 157.3L60.0 157.3Q59.0 157.3 58.3 157.7Q57.5 158.1 57.0 158.9Q56.6 159.6 56.6 160.7L56.6 160.7L56.6 169.9ZM70.2 170.2L70.2 170.2Q67.7 170.2 65.9 169.2Q64.1 168.1 63.1 166.2Q62.1 164.3 62.1 161.8L62.1 161.8Q62.1 159.3 63.1 157.4Q64.1 155.5 65.9 154.4Q67.7 153.3 70.2 153.3L70.2 153.3Q72.7 153.3 74.5 154.4Q76.3 155.5 77.2 157.4Q78.2 159.3 78.2 161.8L78.2 161.8Q78.2 164.3 77.2 166.2Q76.3 168.1 74.5 169.2Q72.7 170.2 70.2 170.2ZM70.2 166.7L70.2 166.7Q71.3 166.7 72.1 166.1Q72.8 165.4 73.2 164.3Q73.6 163.2 73.6 161.8L73.6 161.8Q73.6 160.3 73.2 159.2Q72.8 158.1 72.1 157.4Q71.3 156.8 70.2 156.8L70.2 156.8Q69.1 156.8 68.3 157.4Q67.5 158.1 67.1 159.2Q66.7 160.3 66.7 161.8L66.7 161.8Q66.7 163.2 67.1 164.3Q67.5 165.4 68.3 166.1Q69.1 166.7 70.2 166.7ZM79.1 153.5L89.2 153.5L89.2 157.0L79.1 157.0L79.1 153.5ZM86.0 169.9L81.5 169.9L81.5 152.4Q81.5 150.6 82.1 149.4Q82.8 148.2 84.1 147.7Q85.3 147.1 86.8 147.1L86.8 147.1Q87.9 147.1 88.7 147.2Q89.6 147.4 90.0 147.5L90.0 147.5L89.2 150.9Q89.0 150.8 88.6 150.8Q88.2 150.7 87.8 150.7L87.8 150.7Q86.8 150.7 86.4 151.2Q86.0 151.6 86.0 152.4L86.0 152.4L86.0 169.9ZM98.1 170.2L98.1 170.2Q95.6 170.2 93.8 169.2Q92.0 168.2 91.0 166.3Q90.0 164.4 90.0 161.8L90.0 161.8Q90.0 159.3 91.0 157.4Q92.0 155.5 93.8 154.4Q95.6 153.3 98.0 153.3L98.0 153.3Q99.6 153.3 101.0 153.8Q102.4 154.4 103.4 155.4Q104.5 156.4 105.1 158.0Q105.7 159.6 105.7 161.6L105.7 161.6L105.7 162.9L91.8 162.9L91.8 160.1L101.4 160.1Q101.4 159.1 101.0 158.3Q100.5 157.6 99.8 157.2Q99.0 156.7 98.0 156.7L98.0 156.7Q97.0 156.7 96.2 157.2Q95.4 157.7 95.0 158.5Q94.5 159.3 94.5 160.2L94.5 160.2L94.5 162.9Q94.5 164.1 95.0 165.0Q95.4 165.9 96.2 166.4Q97.1 166.8 98.2 166.8L98.2 166.8Q99.0 166.8 99.6 166.6Q100.2 166.4 100.7 166.0Q101.1 165.6 101.4 164.9L101.4 164.9L105.6 165.2Q105.2 166.7 104.3 167.9Q103.3 169.0 101.7 169.6Q100.2 170.2 98.1 170.2ZM121.5 158.2L121.5 158.2L117.3 158.5Q117.2 157.9 116.9 157.5Q116.5 157.1 115.9 156.8Q115.4 156.5 114.6 156.5L114.6 156.5Q113.5 156.5 112.8 157.0Q112.1 157.4 112.1 158.2L112.1 158.2Q112.1 158.8 112.6 159.2Q113.0 159.6 114.2 159.8L114.2 159.8L117.1 160.4Q119.5 160.9 120.7 162.0Q121.9 163.1 121.9 164.8L121.9 164.8Q121.9 166.4 120.9 167.7Q120.0 168.9 118.3 169.6Q116.7 170.2 114.6 170.2L114.6 170.2Q111.3 170.2 109.4 168.9Q107.5 167.5 107.1 165.2L107.1 165.2L111.6 164.9Q111.8 165.9 112.6 166.4Q113.4 167.0 114.6 167.0L114.6 167.0Q115.8 167.0 116.5 166.5Q117.2 166.0 117.2 165.3L117.2 165.3Q117.2 164.7 116.7 164.3Q116.2 163.9 115.1 163.7L115.1 163.7L112.3 163.1Q109.9 162.6 108.7 161.4Q107.6 160.3 107.6 158.4L107.6 158.4Q107.6 156.8 108.4 155.7Q109.3 154.6 110.9 154.0Q112.4 153.3 114.5 153.3L114.5 153.3Q117.6 153.3 119.4 154.6Q121.2 156.0 121.5 158.2ZM128.5 169.9L124.0 169.9L124.0 153.5L128.5 153.5L128.5 169.9ZM126.2 151.4L126.2 151.4Q125.2 151.4 124.5 150.8Q123.8 150.1 123.8 149.1L123.8 149.1Q123.8 148.2 124.5 147.5Q125.2 146.8 126.2 146.8L126.2 146.8Q127.3 146.8 128.0 147.5Q128.7 148.2 128.7 149.1L128.7 149.1Q128.7 150.1 128.0 150.8Q127.3 151.4 126.2 151.4ZM138.8 170.2L138.8 170.2Q136.3 170.2 134.5 169.2Q132.7 168.1 131.7 166.2Q130.7 164.3 130.7 161.8L130.7 161.8Q130.7 159.3 131.7 157.4Q132.7 155.5 134.5 154.4Q136.3 153.3 138.8 153.3L138.8 153.3Q141.3 153.3 143.1 154.4Q144.9 155.5 145.8 157.4Q146.8 159.3 146.8 161.8L146.8 161.8Q146.8 164.3 145.8 166.2Q144.9 168.1 143.1 169.2Q141.3 170.2 138.8 170.2ZM138.8 166.7L138.8 166.7Q139.9 166.7 140.7 166.1Q141.4 165.4 141.8 164.3Q142.2 163.2 142.2 161.8L142.2 161.8Q142.2 160.3 141.8 159.2Q141.4 158.1 140.7 157.4Q139.9 156.8 138.8 156.8L138.8 156.8Q137.7 156.8 136.9 157.4Q136.1 158.1 135.7 159.2Q135.3 160.3 135.3 161.8L135.3 161.8Q135.3 163.2 135.7 164.3Q136.1 165.4 136.9 166.1Q137.7 166.7 138.8 166.7ZM153.6 160.4L153.6 160.4L153.6 169.9L149.0 169.9L149.0 153.5L153.4 153.5L153.4 156.4L153.6 156.4Q154.1 155.0 155.4 154.2Q156.7 153.3 158.5 153.3L158.5 153.3Q160.2 153.3 161.4 154.1Q162.7 154.8 163.4 156.2Q164.1 157.6 164.1 159.5L164.1 159.5L164.1 169.9L159.6 169.9L159.6 160.3Q159.6 158.8 158.8 158.0Q158.0 157.1 156.7 157.1L156.7 157.1Q155.8 157.1 155.1 157.5Q154.4 157.9 154.0 158.6Q153.6 159.4 153.6 160.4ZM171.6 170.2L171.6 170.2Q170.0 170.2 168.8 169.7Q167.6 169.1 166.9 168.0Q166.2 167.0 166.2 165.3L166.2 165.3Q166.2 164.0 166.7 163.0Q167.2 162.1 168.0 161.6Q168.9 161.0 170.0 160.7Q171.1 160.4 172.3 160.3L172.3 160.3Q173.7 160.2 174.6 160.0Q175.5 159.9 175.9 159.6Q176.3 159.4 176.3 158.8L176.3 158.8L176.3 158.8Q176.3 157.8 175.6 157.2Q175.0 156.6 173.9 156.6L173.9 156.6Q172.6 156.6 171.9 157.2Q171.2 157.7 170.9 158.5L170.9 158.5L166.7 158.2Q167.1 156.7 168.0 155.6Q168.9 154.5 170.4 153.9Q171.9 153.3 173.9 153.3L173.9 153.3Q175.2 153.3 176.5 153.7Q177.7 154.0 178.7 154.6Q179.7 155.3 180.3 156.4Q180.8 157.4 180.8 158.9L180.8 158.9L180.8 169.9L176.5 169.9L176.5 167.6L176.4 167.6Q176.0 168.4 175.3 169.0Q174.7 169.6 173.7 169.9Q172.8 170.2 171.6 170.2ZM172.9 167.1L172.9 167.1Q173.9 167.1 174.7 166.7Q175.4 166.3 175.9 165.6Q176.3 164.9 176.3 164.1L176.3 164.1L176.3 162.3Q176.1 162.5 175.7 162.6Q175.4 162.7 174.9 162.8Q174.5 162.9 174.0 162.9Q173.5 163.0 173.2 163.1L173.2 163.1Q172.4 163.2 171.8 163.4Q171.2 163.7 170.8 164.1Q170.5 164.6 170.5 165.2L170.5 165.2Q170.5 166.1 171.2 166.6Q171.9 167.1 172.9 167.1ZM183.6 148.1L188.1 148.1L188.1 169.9L183.6 169.9L183.6 148.1ZM191.7 148.1L196.4 148.1L196.0 163.4L192.1 163.4L191.7 148.1ZM194.1 170.2L194.1 170.2Q193.0 170.2 192.3 169.4Q191.5 168.7 191.5 167.6L191.5 167.6Q191.5 166.6 192.3 165.8Q193.0 165.1 194.1 165.1L194.1 165.1Q195.1 165.1 195.8 165.8Q196.6 166.6 196.6 167.6L196.6 167.6Q196.6 168.3 196.3 168.9Q195.9 169.5 195.3 169.8Q194.7 170.2 194.1 170.2Z "/><mask id="satori_om-id-0-0-0-1"><rect x="32" y="177" width="391" height="72" fill="#fff"/></mask><path fill="#4f46e5" d="M41.6 205.9L41.6 205.9L33.9 205.9L33.9 184.1L41.7 184.1Q45.0 184.1 47.4 185.4Q49.7 186.7 51.0 189.1Q52.3 191.6 52.3 195.0L52.3 195.0Q52.3 198.4 51.0 200.8Q49.7 203.3 47.3 204.6Q45.0 205.9 41.6 205.9ZM38.5 188.0L38.5 202.0L41.4 202.0Q43.5 202.0 44.9 201.2Q46.3 200.5 47.0 199.0Q47.7 197.4 47.7 195.0L47.7 195.0Q47.7 192.6 47.0 191.0Q46.3 189.5 44.9 188.8Q43.5 188.0 41.4 188.0L41.4 188.0L38.5 188.0ZM62.3 206.2L62.3 206.2Q59.8 206.2 58.0 205.2Q56.2 204.2 55.2 202.3Q54.2 200.4 54.2 197.8L54.2 197.8Q54.2 195.3 55.2 193.4Q56.2 191.5 58.0 190.4Q59.7 189.3 62.2 189.3L62.2 189.3Q63.8 189.3 65.2 189.8Q66.6 190.4 67.6 191.4Q68.7 192.4 69.3 194.0Q69.8 195.6 69.8 197.6L69.8 197.6L69.8 198.9L56.0 198.9L56.0 196.1L65.6 196.1Q65.6 195.1 65.1 194.3Q64.7 193.6 64.0 193.2Q63.2 192.7 62.2 192.7L62.2 192.7Q61.2 192.7 60.4 193.2Q59.6 193.7 59.2 194.5Q58.7 195.3 58.7 196.2L58.7 196.2L58.7 198.9Q58.7 200.1 59.2 201.0Q59.6 201.9 60.4 202.4Q61.3 202.8 62.4 202.8L62.4 202.8Q63.2 202.8 63.8 202.6Q64.4 202.4 64.9 202.0Q65.3 201.6 65.6 200.9L65.6 200.9L69.8 201.2Q69.4 202.7 68.4 203.9Q67.5 205.0 65.9 205.6Q64.4 206.2 62.3 206.2ZM85.7 194.2L85.7 194.2L81.5 194.5Q81.4 193.9 81.1 193.5Q80.7 193.1 80.1 192.8Q79.6 192.5 78.8 192.5L78.8 192.5Q77.7 192.5 77.0 193.0Q76.3 193.4 76.3 194.2L76.3 194.2Q76.3 194.8 76.7 195.2Q77.2 195.6 78.4 195.8L78.4 195.8L81.3 196.4Q83.7 196.9 84.9 198.0Q86.0 199.1 86.0 200.8L86.0 200.8Q86.0 202.4 85.1 203.7Q84.2 204.9 82.5 205.6Q80.9 206.2 78.8 206.2L78.8 206.2Q75.5 206.2 73.6 204.9Q71.7 203.5 71.3 201.2L71.3 201.2L75.8 200.9Q76.0 201.9 76.8 202.4Q77.6 203.0 78.8 203.0L78.8 203.0Q80.0 203.0 80.7 202.5Q81.4 202.0 81.4 201.3L81.4 201.3Q81.4 200.7 80.9 200.3Q80.4 199.9 79.3 199.7L79.3 199.7L76.5 199.1Q74.1 198.6 72.9 197.4Q71.8 196.3 71.8 194.4L71.8 194.4Q71.8 192.8 72.6 191.7Q73.5 190.6 75.0 190.0Q76.6 189.3 78.7 189.3L78.7 189.3Q81.8 189.3 83.6 190.6Q85.4 192.0 85.7 194.2ZM95.6 206.2L95.6 206.2Q93.0 206.2 91.2 205.2Q89.4 204.1 88.5 202.2Q87.5 200.3 87.5 197.8L87.5 197.8Q87.5 195.3 88.5 193.4Q89.5 191.5 91.3 190.4Q93.1 189.3 95.5 189.3L95.5 189.3Q97.7 189.3 99.3 190.1Q100.9 190.9 101.8 192.3Q102.8 193.7 102.9 195.6L102.9 195.6L98.6 195.6Q98.4 194.4 97.6 193.6Q96.9 192.9 95.6 192.9L95.6 192.9Q94.6 192.9 93.8 193.4Q93.0 194.0 92.6 195.1Q92.1 196.2 92.1 197.7L92.1 197.7Q92.1 199.3 92.5 200.4Q93.0 201.5 93.8 202.1Q94.6 202.6 95.6 202.6L95.6 202.6Q96.4 202.6 97.0 202.3Q97.6 202.0 98.0 201.4Q98.5 200.8 98.6 199.9L98.6 199.9L102.9 199.9Q102.8 201.8 101.8 203.2Q100.9 204.6 99.3 205.4Q97.7 206.2 95.6 206.2ZM115.5 198.9L115.5 198.9L115.5 189.5L120.1 189.5L120.1 205.9L115.7 205.9L115.7 202.9L115.5 202.9Q115.0 204.4 113.7 205.2Q112.4 206.1 110.6 206.1L110.6 206.1Q108.9 206.1 107.7 205.4Q106.4 204.6 105.7 203.3Q105.0 201.9 105.0 200.0L105.0 200.0L105.0 189.5L109.6 189.5L109.6 199.2Q109.6 200.6 110.3 201.4Q111.1 202.3 112.4 202.3L112.4 202.3Q113.2 202.3 113.9 201.9Q114.7 201.5 115.1 200.8Q115.5 200.0 115.5 198.9ZM127.5 205.9L123.0 205.9L123.0 184.1L127.6 184.1L127.6 192.3L127.7 192.3Q128.0 191.6 128.6 190.9Q129.1 190.3 130.1 189.8Q131.0 189.3 132.4 189.3L132.4 189.3Q134.1 189.3 135.7 190.3Q137.2 191.2 138.1 193.1Q139.0 194.9 139.0 197.7L139.0 197.7Q139.0 200.5 138.1 202.4Q137.2 204.2 135.7 205.2Q134.2 206.2 132.3 206.2L132.3 206.2Q131.0 206.2 130.1 205.7Q129.2 205.3 128.6 204.6Q128.0 204.0 127.7 203.3L127.7 203.3L127.5 203.3L127.5 205.9ZM127.5 197.7L127.5 197.7Q127.5 199.2 127.9 200.3Q128.3 201.4 129.0 202.0Q129.8 202.6 130.9 202.6L130.9 202.6Q132.0 202.6 132.8 202.0Q133.5 201.3 133.9 200.2Q134.3 199.2 134.3 197.7L134.3 197.7Q134.3 196.3 134.0 195.2Q133.6 194.2 132.8 193.6Q132.0 192.9 130.9 192.9L130.9 192.9Q129.8 192.9 129.0 193.5Q128.3 194.1 127.9 195.2Q127.5 196.3 127.5 197.7ZM145.8 205.9L141.2 205.9L141.2 189.5L145.6 189.5L145.6 192.4L145.8 192.4Q146.3 190.9 147.3 190.1Q148.4 189.3 149.7 189.3L149.7 189.3Q150.1 189.3 150.5 189.4Q150.9 189.4 151.2 189.5L151.2 189.5L151.2 193.5Q150.9 193.4 150.3 193.3Q149.7 193.3 149.3 193.3L149.3 193.3Q148.3 193.3 147.5 193.7Q146.7 194.1 146.2 194.9Q145.8 195.6 145.8 196.7L145.8 196.7L145.8 205.9ZM159.4 206.2L159.4 206.2Q156.9 206.2 155.1 205.2Q153.3 204.2 152.3 202.3Q151.3 200.4 151.3 197.8L151.3 197.8Q151.3 195.3 152.3 193.4Q153.3 191.5 155.1 190.4Q156.9 189.3 159.3 189.3L159.3 189.3Q160.9 189.3 162.3 189.8Q163.7 190.4 164.7 191.4Q165.8 192.4 166.4 194.0Q167.0 195.6 167.0 197.6L167.0 197.6L167.0 198.9L153.1 198.9L153.1 196.1L162.7 196.1Q162.7 195.1 162.3 194.3Q161.8 193.6 161.1 193.2Q160.3 192.7 159.3 192.7L159.3 192.7Q158.3 192.7 157.5 193.2Q156.7 193.7 156.3 194.5Q155.8 195.3 155.8 196.2L155.8 196.2L155.8 198.9Q155.8 200.1 156.3 201.0Q156.7 201.9 157.6 202.4Q158.4 202.8 159.5 202.8L159.5 202.8Q160.3 202.8 160.9 202.6Q161.5 202.4 162.0 202.0Q162.4 201.6 162.7 200.9L162.7 200.9L166.9 201.2Q166.5 202.7 165.6 203.9Q164.6 205.0 163.0 205.6Q161.5 206.2 159.4 206.2Z M183.5 206.2L183.5 206.2Q181.0 206.2 179.2 205.2Q177.4 204.1 176.4 202.2Q175.5 200.3 175.5 197.8L175.5 197.8Q175.5 195.3 176.5 193.4Q177.4 191.5 179.2 190.4Q181.0 189.3 183.5 189.3L183.5 189.3Q185.7 189.3 187.3 190.1Q188.9 190.9 189.8 192.3Q190.8 193.7 190.8 195.6L190.8 195.6L186.6 195.6Q186.4 194.4 185.6 193.6Q184.8 192.9 183.6 192.9L183.6 192.9Q182.5 192.9 181.8 193.4Q181.0 194.0 180.5 195.1Q180.1 196.2 180.1 197.7L180.1 197.7Q180.1 199.3 180.5 200.4Q181.0 201.5 181.7 202.1Q182.5 202.6 183.6 202.6L183.6 202.6Q184.4 202.6 185.0 202.3Q185.6 202.0 186.0 201.4Q186.4 200.8 186.6 199.9L186.6 199.9L190.8 199.9Q190.7 201.8 189.8 203.2Q188.9 204.6 187.3 205.4Q185.7 206.2 183.5 206.2ZM200.4 206.2L200.4 206.2Q197.9 206.2 196.1 205.2Q194.3 204.1 193.3 202.2Q192.4 200.3 192.4 197.8L192.4 197.8Q192.4 195.3 193.3 193.4Q194.3 191.5 196.1 190.4Q197.9 189.3 200.4 189.3L200.4 189.3Q202.9 189.3 204.7 190.4Q206.5 191.5 207.5 193.4Q208.5 195.3 208.5 197.8L208.5 197.8Q208.5 200.3 207.5 202.2Q206.5 204.1 204.7 205.2Q202.9 206.2 200.4 206.2ZM200.4 202.7L200.4 202.7Q201.6 202.7 202.3 202.1Q203.1 201.4 203.5 200.3Q203.9 199.2 203.9 197.8L203.9 197.8Q203.9 196.3 203.5 195.2Q203.1 194.1 202.3 193.4Q201.6 192.8 200.4 192.8L200.4 192.8Q199.3 192.8 198.5 193.4Q197.7 194.1 197.4 195.2Q197.0 196.3 197.0 197.8L197.0 197.8Q197.0 199.2 197.4 200.3Q197.7 201.4 198.5 202.1Q199.3 202.7 200.4 202.7ZM202.0 187.4L198.8 187.4L201.0 182.6L205.2 182.6L202.0 187.4ZM215.2 205.9L210.7 205.9L210.7 189.5L215.0 189.5L215.0 192.4L215.2 192.4Q215.7 191.0 216.9 190.2Q218.1 189.3 219.8 189.3L219.8 189.3Q221.4 189.3 222.6 190.2Q223.8 191.0 224.2 192.4L224.2 192.4L224.4 192.4Q224.9 191.0 226.2 190.2Q227.5 189.3 229.3 189.3L229.3 189.3Q231.6 189.3 233.0 190.8Q234.5 192.2 234.5 194.9L234.5 194.9L234.5 205.9L229.9 205.9L229.9 195.8Q229.9 194.4 229.2 193.8Q228.5 193.1 227.4 193.1L227.4 193.1Q226.2 193.1 225.5 193.9Q224.8 194.6 224.8 195.9L224.8 195.9L224.8 205.9L220.4 205.9L220.4 195.7Q220.4 194.5 219.7 193.8Q219.0 193.1 217.9 193.1L217.9 193.1Q217.1 193.1 216.5 193.4Q215.9 193.8 215.6 194.5Q215.2 195.2 215.2 196.1L215.2 196.1L215.2 205.9ZM244.7 206.2L244.7 206.2Q242.2 206.2 240.4 205.2Q238.6 204.1 237.6 202.2Q236.6 200.3 236.6 197.8L236.6 197.8Q236.6 195.3 237.6 193.4Q238.6 191.5 240.4 190.4Q242.2 189.3 244.7 189.3L244.7 189.3Q247.2 189.3 249.0 190.4Q250.8 191.5 251.7 193.4Q252.7 195.3 252.7 197.8L252.7 197.8Q252.7 200.3 251.7 202.2Q250.8 204.1 249.0 205.2Q247.2 206.2 244.7 206.2ZM244.7 202.7L244.7 202.7Q245.8 202.7 246.6 202.1Q247.3 201.4 247.7 200.3Q248.1 199.2 248.1 197.8L248.1 197.8Q248.1 196.3 247.7 195.2Q247.3 194.1 246.6 193.4Q245.8 192.8 244.7 192.8L244.7 192.8Q243.6 192.8 242.8 193.4Q242.0 194.1 241.6 195.2Q241.2 196.3 241.2 197.8L241.2 197.8Q241.2 199.2 241.6 200.3Q242.0 201.4 242.8 202.1Q243.6 202.7 244.7 202.7Z M265.7 212.0L261.1 212.0L261.1 189.5L265.6 189.5L265.6 192.3L265.8 192.3Q266.1 191.6 266.7 190.9Q267.3 190.3 268.2 189.8Q269.1 189.3 270.5 189.3L270.5 189.3Q272.3 189.3 273.8 190.3Q275.3 191.2 276.2 193.1Q277.1 194.9 277.1 197.7L277.1 197.7Q277.1 200.5 276.2 202.4Q275.3 204.2 273.8 205.2Q272.3 206.2 270.5 206.2L270.5 206.2Q269.1 206.2 268.2 205.7Q267.3 205.3 266.7 204.6Q266.1 204.0 265.8 203.3L265.8 203.3L265.7 203.3L265.7 212.0ZM265.6 197.7L265.6 197.7Q265.6 199.2 266.0 200.3Q266.4 201.4 267.2 202.0Q267.9 202.6 269.0 202.6L269.0 202.6Q270.1 202.6 270.9 202.0Q271.7 201.3 272.1 200.2Q272.5 199.2 272.5 197.7L272.5 197.7Q272.5 196.3 272.1 195.2Q271.7 194.2 270.9 193.6Q270.2 192.9 269.0 192.9L269.0 192.9Q267.9 192.9 267.2 193.5Q266.4 194.1 266.0 195.2Q265.6 196.3 265.6 197.7ZM286.8 206.2L286.8 206.2Q284.3 206.2 282.5 205.2Q280.7 204.1 279.7 202.2Q278.7 200.3 278.7 197.8L278.7 197.8Q278.7 195.3 279.7 193.4Q280.7 191.5 282.5 190.4Q284.3 189.3 286.8 189.3L286.8 189.3Q289.2 189.3 291.1 190.4Q292.9 191.5 293.8 193.4Q294.8 195.3 294.8 197.8L294.8 197.8Q294.8 200.3 293.8 202.2Q292.9 204.1 291.1 205.2Q289.2 206.2 286.8 206.2ZM286.8 202.7L286.8 202.7Q287.9 202.7 288.7 202.1Q289.4 201.4 289.8 200.3Q290.2 199.2 290.2 197.8L290.2 197.8Q290.2 196.3 289.8 195.2Q289.4 194.1 288.7 193.4Q287.9 192.8 286.8 192.8L286.8 192.8Q285.6 192.8 284.9 193.4Q284.1 194.1 283.7 195.2Q283.3 196.3 283.3 197.8L283.3 197.8Q283.3 199.2 283.7 200.3Q284.1 201.4 284.9 202.1Q285.6 202.7 286.8 202.7ZM303.1 206.2L303.1 206.2Q301.2 206.2 299.7 205.2Q298.2 204.2 297.3 202.4Q296.4 200.5 296.4 197.7L296.4 197.7Q296.4 194.9 297.3 193.1Q298.2 191.2 299.7 190.3Q301.3 189.3 303.1 189.3L303.1 189.3Q304.4 189.3 305.3 189.8Q306.3 190.3 306.8 190.9Q307.4 191.6 307.7 192.3L307.7 192.3L307.8 192.3L307.8 184.1L312.4 184.1L312.4 205.9L307.9 205.9L307.9 203.3L307.7 203.3Q307.4 204.0 306.8 204.6Q306.2 205.3 305.3 205.7Q304.4 206.2 303.1 206.2ZM304.5 202.6L304.5 202.6Q305.6 202.6 306.4 202.0Q307.1 201.4 307.5 200.3Q307.9 199.2 307.9 197.7L307.9 197.7Q307.9 196.3 307.5 195.2Q307.1 194.1 306.4 193.5Q305.6 192.9 304.5 192.9L304.5 192.9Q303.4 192.9 302.6 193.6Q301.8 194.2 301.5 195.2Q301.1 196.3 301.1 197.7L301.1 197.7Q301.1 199.2 301.5 200.2Q301.9 201.3 302.6 202.0Q303.4 202.6 304.5 202.6ZM322.8 206.2L322.8 206.2Q320.3 206.2 318.5 205.2Q316.6 204.2 315.7 202.3Q314.7 200.4 314.7 197.8L314.7 197.8Q314.7 195.3 315.7 193.4Q316.6 191.5 318.4 190.4Q320.2 189.3 322.6 189.3L322.6 189.3Q324.2 189.3 325.6 189.8Q327.0 190.4 328.1 191.4Q329.1 192.4 329.7 194.0Q330.3 195.6 330.3 197.6L330.3 197.6L330.3 198.9L316.5 198.9L316.5 196.1L326.0 196.1Q326.0 195.1 325.6 194.3Q325.2 193.6 324.4 193.2Q323.7 192.7 322.7 192.7L322.7 192.7Q321.7 192.7 320.9 193.2Q320.1 193.7 319.6 194.5Q319.2 195.3 319.2 196.2L319.2 196.2L319.2 198.9Q319.2 200.1 319.6 201.0Q320.1 201.9 320.9 202.4Q321.7 202.8 322.9 202.8L322.9 202.8Q323.6 202.8 324.3 202.6Q324.9 202.4 325.3 202.0Q325.8 201.6 326.0 200.9L326.0 200.9L330.2 201.2Q329.9 202.7 328.9 203.9Q327.9 205.0 326.4 205.6Q324.8 206.2 322.8 206.2ZM337.1 205.9L332.5 205.9L332.5 189.5L336.8 189.5L336.8 192.4L337.0 192.4Q337.5 191.0 338.7 190.2Q339.9 189.3 341.6 189.3L341.6 189.3Q343.3 189.3 344.5 190.2Q345.6 191.0 346.0 192.4L346.0 192.4L346.2 192.4Q346.7 191.0 348.0 190.2Q349.3 189.3 351.1 189.3L351.1 189.3Q353.4 189.3 354.9 190.8Q356.3 192.2 356.3 194.9L356.3 194.9L356.3 205.9L351.8 205.9L351.8 195.8Q351.8 194.4 351.0 193.8Q350.3 193.1 349.2 193.1L349.2 193.1Q348.0 193.1 347.3 193.9Q346.6 194.6 346.6 195.9L346.6 195.9L346.6 205.9L342.2 205.9L342.2 195.7Q342.2 194.5 341.5 193.8Q340.8 193.1 339.7 193.1L339.7 193.1Q339.0 193.1 338.4 193.4Q337.8 193.8 337.4 194.5Q337.1 195.2 337.1 196.1L337.1 196.1L337.1 205.9ZM366.5 206.2L366.5 206.2Q364.0 206.2 362.2 205.2Q360.4 204.1 359.4 202.2Q358.5 200.3 358.5 197.8L358.5 197.8Q358.5 195.3 359.4 193.4Q360.4 191.5 362.2 190.4Q364.0 189.3 366.5 189.3L366.5 189.3Q369.0 189.3 370.8 190.4Q372.6 191.5 373.6 193.4Q374.6 195.3 374.6 197.8L374.6 197.8Q374.6 200.3 373.6 202.2Q372.6 204.1 370.8 205.2Q369.0 206.2 366.5 206.2ZM366.5 202.7L366.5 202.7Q367.7 202.7 368.4 202.1Q369.2 201.4 369.6 200.3Q370.0 199.2 370.0 197.8L370.0 197.8Q370.0 196.3 369.6 195.2Q369.2 194.1 368.4 193.4Q367.7 192.8 366.5 192.8L366.5 192.8Q365.4 192.8 364.6 193.4Q363.9 194.1 363.5 195.2Q363.1 196.3 363.1 197.8L363.1 197.8Q363.1 199.2 363.5 200.3Q363.9 201.4 364.6 202.1Q365.4 202.7 366.5 202.7ZM390.4 194.2L390.4 194.2L386.2 194.5Q386.1 193.9 385.8 193.5Q385.4 193.1 384.9 192.8Q384.3 192.5 383.5 192.5L383.5 192.5Q382.5 192.5 381.7 193.0Q381.0 193.4 381.0 194.2L381.0 194.2Q381.0 194.8 381.5 195.2Q381.9 195.6 383.1 195.8L383.1 195.8L386.0 196.4Q388.4 196.9 389.6 198.0Q390.8 199.1 390.8 200.8L390.8 200.8Q390.8 202.4 389.8 203.7Q388.9 204.9 387.3 205.6Q385.6 206.2 383.5 206.2L383.5 206.2Q380.2 206.2 378.3 204.9Q376.4 203.5 376.1 201.2L376.1 201.2L380.5 200.9Q380.7 201.9 381.5 202.4Q382.3 203.0 383.5 203.0L383.5 203.0Q384.7 203.0 385.4 202.5Q386.2 202.0 386.2 201.3L386.2 201.3Q386.2 200.7 385.6 200.3Q385.1 199.9 384.1 199.7L384.1 199.7L381.2 199.1Q378.8 198.6 377.7 197.4Q376.5 196.3 376.5 194.4L376.5 194.4Q376.5 192.8 377.4 191.7Q378.2 190.6 379.8 190.0Q381.3 189.3 383.4 189.3L383.4 189.3Q386.5 189.3 388.3 190.6Q390.1 192.0 390.4 194.2Z M38.5 242.2L38.5 242.2Q36.9 242.2 35.7 241.7Q34.5 241.1 33.8 240.0Q33.0 239.0 33.0 237.3L33.0 237.3Q33.0 236.0 33.5 235.0Q34.0 234.1 34.9 233.6Q35.8 233.0 36.9 232.7Q38.0 232.4 39.2 232.3L39.2 232.3Q40.6 232.2 41.5 232.0Q42.4 231.9 42.8 231.6Q43.2 231.4 43.2 230.8L43.2 230.8L43.2 230.8Q43.2 229.8 42.5 229.2Q41.9 228.6 40.7 228.6L40.7 228.6Q39.5 228.6 38.8 229.2Q38.1 229.7 37.8 230.5L37.8 230.5L33.6 230.2Q33.9 228.7 34.9 227.6Q35.8 226.5 37.3 225.9Q38.8 225.3 40.7 225.3L40.7 225.3Q42.1 225.3 43.4 225.7Q44.6 226.0 45.6 226.6Q46.6 227.3 47.1 228.4Q47.7 229.4 47.7 230.9L47.7 230.9L47.7 241.9L43.4 241.9L43.4 239.6L43.3 239.6Q42.9 240.4 42.2 241.0Q41.5 241.6 40.6 241.9Q39.7 242.2 38.5 242.2ZM39.8 239.1L39.8 239.1Q40.8 239.1 41.5 238.7Q42.3 238.3 42.7 237.6Q43.2 236.9 43.2 236.1L43.2 236.1L43.2 234.3Q43.0 234.5 42.6 234.6Q42.2 234.7 41.8 234.8Q41.3 234.9 40.9 234.9Q40.4 235.0 40.0 235.1L40.0 235.1Q39.2 235.2 38.6 235.4Q38.0 235.7 37.7 236.1Q37.4 236.6 37.4 237.2L37.4 237.2Q37.4 238.1 38.1 238.6Q38.7 239.1 39.8 239.1ZM52.7 248.0L52.7 248.0Q51.8 248.0 51.1 247.9Q50.3 247.8 49.8 247.6L49.8 247.6L50.8 244.2Q51.6 244.4 52.3 244.5Q52.9 244.5 53.4 244.2Q53.9 243.8 54.2 243.1L54.2 243.1L54.4 242.4L48.6 225.5L53.3 225.5L56.7 237.6L56.9 237.6L60.3 225.5L65.1 225.5L58.8 243.7Q58.3 245.0 57.5 246.0Q56.7 247.0 55.6 247.5Q54.4 248.0 52.7 248.0ZM77.2 234.9L77.2 234.9L77.2 225.5L81.7 225.5L81.7 241.9L77.4 241.9L77.4 238.9L77.2 238.9Q76.7 240.4 75.4 241.2Q74.1 242.1 72.2 242.1L72.2 242.1Q70.6 242.1 69.4 241.4Q68.1 240.6 67.4 239.3Q66.7 237.9 66.7 236.0L66.7 236.0L66.7 225.5L71.2 225.5L71.2 235.2Q71.2 236.6 72.0 237.4Q72.8 238.3 74.1 238.3L74.1 238.3Q74.9 238.3 75.6 237.9Q76.3 237.5 76.8 236.8Q77.2 236.0 77.2 234.9ZM90.6 242.2L90.6 242.2Q88.8 242.2 87.3 241.2Q85.8 240.2 84.9 238.4Q84.0 236.5 84.0 233.7L84.0 233.7Q84.0 230.9 84.9 229.1Q85.8 227.2 87.3 226.3Q88.8 225.3 90.6 225.3L90.6 225.3Q92.0 225.3 92.9 225.8Q93.8 226.3 94.4 226.9Q95.0 227.6 95.3 228.3L95.3 228.3L95.4 228.3L95.4 220.1L99.9 220.1L99.9 241.9L95.5 241.9L95.5 239.3L95.3 239.3Q95.0 240.0 94.4 240.6Q93.8 241.3 92.9 241.7Q92.0 242.2 90.6 242.2ZM92.1 238.6L92.1 238.6Q93.2 238.6 93.9 238.0Q94.7 237.4 95.1 236.3Q95.5 235.2 95.5 233.7L95.5 233.7Q95.5 232.3 95.1 231.2Q94.7 230.1 93.9 229.5Q93.2 228.9 92.1 228.9L92.1 228.9Q91.0 228.9 90.2 229.6Q89.4 230.2 89.0 231.2Q88.6 232.3 88.6 233.7L88.6 233.7Q88.6 235.2 89.0 236.2Q89.4 237.3 90.2 238.0Q91.0 238.6 92.1 238.6ZM107.6 242.2L107.6 242.2Q106.0 242.2 104.8 241.7Q103.6 241.1 102.9 240.0Q102.1 239.0 102.1 237.3L102.1 237.3Q102.1 236.0 102.6 235.0Q103.1 234.1 104.0 233.6Q104.9 233.0 106.0 232.7Q107.1 232.4 108.3 232.3L108.3 232.3Q109.7 232.2 110.6 232.0Q111.5 231.9 111.9 231.6Q112.3 231.4 112.3 230.8L112.3 230.8L112.3 230.8Q112.3 229.8 111.6 229.2Q111.0 228.6 109.8 228.6L109.8 228.6Q108.6 228.6 107.9 229.2Q107.2 229.7 106.9 230.5L106.9 230.5L102.7 230.2Q103.0 228.7 104.0 227.6Q104.9 226.5 106.4 225.9Q107.9 225.3 109.8 225.3L109.8 225.3Q111.2 225.3 112.5 225.7Q113.7 226.0 114.7 226.6Q115.7 227.3 116.2 228.4Q116.8 229.4 116.8 230.9L116.8 230.9L116.8 241.9L112.5 241.9L112.5 239.6L112.4 239.6Q112.0 240.4 111.3 241.0Q110.6 241.6 109.7 241.9Q108.8 242.2 107.6 242.2ZM108.9 239.1L108.9 239.1Q109.9 239.1 110.6 238.7Q111.4 238.3 111.9 237.6Q112.3 236.9 112.3 236.1L112.3 236.1L112.3 234.3Q112.1 234.5 111.7 234.6Q111.3 234.7 110.9 234.8Q110.4 234.9 110.0 234.9Q109.5 235.0 109.1 235.1L109.1 235.1Q108.3 235.2 107.7 235.4Q107.1 235.7 106.8 236.1Q106.5 236.6 106.5 237.2L106.5 237.2Q106.5 238.1 107.2 238.6Q107.8 239.1 108.9 239.1ZM124.1 241.9L119.6 241.9L119.6 225.5L124.0 225.5L124.0 228.4L124.1 228.4Q124.6 226.9 125.6 226.1Q126.7 225.3 128.1 225.3L128.1 225.3Q128.4 225.3 128.8 225.4Q129.2 225.4 129.5 225.5L129.5 225.5L129.5 229.5Q129.2 229.4 128.6 229.3Q128.1 229.3 127.6 229.3L127.6 229.3Q126.6 229.3 125.8 229.7Q125.0 230.1 124.6 230.9Q124.1 231.6 124.1 232.7L124.1 232.7L124.1 241.9ZM130.8 225.5L140.6 225.5L140.6 229.0L130.8 229.0L130.8 225.5ZM133.0 237.5L133.0 221.6L137.5 221.6L137.5 236.9Q137.5 237.5 137.7 237.9Q137.9 238.2 138.3 238.3Q138.6 238.5 139.1 238.5L139.1 238.5Q139.4 238.5 139.7 238.4Q140.0 238.4 140.2 238.3L140.2 238.3L140.9 241.7Q140.6 241.8 139.9 242.0Q139.3 242.1 138.4 242.1L138.4 242.1Q136.8 242.2 135.6 241.7Q134.3 241.2 133.7 240.1Q133.0 239.1 133.0 237.5L133.0 237.5ZM150.1 242.2L150.1 242.2Q147.6 242.2 145.8 241.2Q143.9 240.2 143.0 238.3Q142.0 236.4 142.0 233.8L142.0 233.8Q142.0 231.3 143.0 229.4Q143.9 227.5 145.7 226.4Q147.5 225.3 149.9 225.3L149.9 225.3Q151.5 225.3 152.9 225.8Q154.3 226.4 155.4 227.4Q156.4 228.4 157.0 230.0Q157.6 231.6 157.6 233.6L157.6 233.6L157.6 234.9L143.8 234.9L143.8 232.1L153.3 232.1Q153.3 231.1 152.9 230.3Q152.5 229.6 151.7 229.2Q151.0 228.7 150.0 228.7L150.0 228.7Q149.0 228.7 148.2 229.2Q147.4 229.7 146.9 230.5Q146.5 231.3 146.5 232.2L146.5 232.2L146.5 234.9Q146.5 236.1 146.9 237.0Q147.4 237.9 148.2 238.4Q149.0 238.8 150.2 238.8L150.2 238.8Q150.9 238.8 151.6 238.6Q152.2 238.4 152.6 238.0Q153.1 237.6 153.3 236.9L153.3 236.9L157.5 237.2Q157.2 238.7 156.2 239.9Q155.2 241.0 153.7 241.6Q152.1 242.2 150.1 242.2Z M170.5 232.4L170.5 232.4L170.5 241.9L166.0 241.9L166.0 220.1L170.4 220.1L170.4 228.4L170.6 228.4Q171.1 227.0 172.4 226.2Q173.6 225.3 175.5 225.3L175.5 225.3Q177.2 225.3 178.4 226.1Q179.7 226.8 180.4 228.2Q181.1 229.6 181.1 231.5L181.1 231.5L181.1 241.9L176.6 241.9L176.6 232.3Q176.6 230.8 175.8 229.9Q175.0 229.1 173.7 229.1L173.7 229.1Q172.7 229.1 172.0 229.5Q171.3 229.9 170.9 230.6Q170.5 231.4 170.5 232.4ZM191.3 242.2L191.3 242.2Q188.9 242.2 187.1 241.2Q185.2 240.1 184.3 238.2Q183.3 236.3 183.3 233.8L183.3 233.8Q183.3 231.3 184.3 229.4Q185.2 227.5 187.1 226.4Q188.9 225.3 191.3 225.3L191.3 225.3Q193.8 225.3 195.6 226.4Q197.4 227.5 198.4 229.4Q199.4 231.3 199.4 233.8L199.4 233.8Q199.4 236.3 198.4 238.2Q197.4 240.1 195.6 241.2Q193.8 242.2 191.3 242.2ZM191.4 238.7L191.4 238.7Q192.5 238.7 193.3 238.1Q194.0 237.4 194.4 236.3Q194.8 235.2 194.8 233.8L194.8 233.8Q194.8 232.3 194.4 231.2Q194.0 230.1 193.3 229.4Q192.5 228.8 191.4 228.8L191.4 228.8Q190.2 228.8 189.5 229.4Q188.7 230.1 188.3 231.2Q187.9 232.3 187.9 233.8L187.9 233.8Q187.9 235.2 188.3 236.3Q188.7 237.4 189.5 238.1Q190.2 238.7 191.4 238.7ZM203.9 248.0L203.9 248.0Q203.0 248.0 202.3 247.9Q201.5 247.8 201.0 247.6L201.0 247.6L202.0 244.2Q202.8 244.4 203.5 244.5Q204.1 244.5 204.6 244.2Q205.1 243.8 205.4 243.1L205.4 243.1L205.6 242.4L199.8 225.5L204.5 225.5L207.9 237.6L208.1 237.6L211.5 225.5L216.3 225.5L210.0 243.7Q209.5 245.0 208.7 246.0Q207.9 247.0 206.7 247.5Q205.6 248.0 203.9 248.0ZM219.5 242.2L219.5 242.2Q218.5 242.2 217.7 241.4Q217.0 240.7 217.0 239.6L217.0 239.6Q217.0 238.6 217.7 237.8Q218.5 237.1 219.5 237.1L219.5 237.1Q220.5 237.1 221.3 237.8Q222.1 238.6 222.1 239.6L222.1 239.6Q222.1 240.3 221.7 240.9Q221.4 241.5 220.8 241.8Q220.2 242.2 219.5 242.2Z "/><mask id="satori_om-id-0-0-1"><rect x="32" y="301" width="391" height="50" fill="#fff"/></mask><mask id="satori_ms-id-0-0-1-0-1" maskUnits="userSpaceOnUse"><rect x="0" y="0" width="455" height="400" fill="#fff"/><path x="32" y="301" width="129" height="50" fill="#000"  stroke-width="-2" d="M38,301 h117 a6,6 0 0 1 6,6 v38 a6,6 0 0 1 -6,6 h-117 a6,6 0 0 1 -6,-6 v-38 a6,6 0 0 1 6,-6"/></mask><mask id="satori_ms-id-0-0-1-0-1-neg" maskUnits="userSpaceOnUse"><path x="32" y="302" width="129" height="50" fill="#fff" stroke="#000" stroke-width="2" d="M38,302 h117 a6,6 0 0 1 6,6 v38 a6,6 0 0 1 -6,6 h-117 a6,6 0 0 1 -6,-6 v-38 a6,6 0 0 1 6,-6"/></mask><defs><filter id="satori_s-id-0-0-1-0-1" x="0%" y="0%" width="100%" height="100%"><feGaussianBlur stdDeviation="1" result="b"/><feFlood flood-color="rgba(0, 0, 0, 0.1)" in="SourceGraphic" result="f"/><feComposite in="f" in2="b" operator="in"/></filter></defs><g mask="url(#satori_ms-id-0-0-1-0-1)" filter="url(#satori_s-id-0-0-1-0-1)" opacity="1"><g mask="url(#satori_ms-id-0-0-1-0-1-neg)"><path x="32" y="302" width="129" height="50" fill="#fff" stroke="#fff" stroke-width="-2" d="M38,302 h117 a6,6 0 0 1 6,6 v38 a6,6 0 0 1 -6,6 h-117 a6,6 0 0 1 -6,-6 v-38 a6,6 0 0 1 6,-6"/></g></g><mask id="satori_ms-id-0-0-1-0-0" maskUnits="userSpaceOnUse"><rect x="0" y="0" width="455" height="400" fill="#fff"/><path x="32" y="301" width="129" height="50" fill="#000"  stroke-width="0" d="M38,301 h117 a6,6 0 0 1 6,6 v38 a6,6 0 0 1 -6,6 h-117 a6,6 0 0 1 -6,-6 v-38 a6,6 0 0 1 6,-6"/></mask><defs><filter id="satori_s-id-0-0-1-0-0" x="-1.744186046511628%" y="-4.5%" width="103.48837209302326%" height="109.00000000000001%"><feGaussianBlur stdDeviation="1.5" result="b"/><feFlood flood-color="rgba(0, 0, 0, 0.1)" in="SourceGraphic" result="f"/><feComposite in="f" in2="b" operator="in"/></filter></defs><g mask="url(#satori_ms-id-0-0-1-0-0)" filter="url(#satori_s-id-0-0-1-0-0)" opacity="1"><path x="32" y="302" width="129" height="50" fill="#fff" stroke="#fff" stroke-width="0" d="M38,302 h117 a6,6 0 0 1 6,6 v38 a6,6 0 0 1 -6,6 h-117 a6,6 0 0 1 -6,-6 v-38 a6,6 0 0 1 6,-6"/></g><mask id="satori_om-id-0-0-1-0"><rect x="32" y="301" width="129" height="50" fill="#fff"/></mask><defs><clipPath id="satori_bc-id-0-0-1-0-0"><path x="32" y="301" width="129" height="50" d="M38,301 h117 a6,6 0 0 1 6,6 v38 a6,6 0 0 1 -6,6 h-117 a6,6 0 0 1 -6,-6 v-38 a6,6 0 0 1 6,-6"/></clipPath></defs><mask id="satori_om-id-0-0-1-0-0"><rect x="33" y="302" width="127" height="48" fill="#fff"/><path width="129" height="50" fill="none" stroke="#000" stroke-width="2" d="M33.757,302.757 A6,6 0 0 1 38,301 h117 a6,6 0 0 1 6,6 v38 a6,6 0 0 1 -6,6 h-117 a6,6 0 0 1 -6,-6 v-38 A6,6 0 0 1 33.757,302.757"/></mask><path x="32" y="301" width="129" height="50" fill="#4f46e5" d="M38,301 h117 a6,6 0 0 1 6,6 v38 a6,6 0 0 1 -6,6 h-117 a6,6 0 0 1 -6,-6 v-38 a6,6 0 0 1 6,-6"/><path width="129" height="50" clip-path="url(#satori_bc-id-0-0-1-0-0)" fill="none" stroke="transparent" stroke-width="2" d="M33.757,302.757 A6,6 0 0 1 38,301 h117 a6,6 0 0 1 6,6 v38 a6,6 0 0 1 -6,6 h-117 a6,6 0 0 1 -6,-6 v-38 A6,6 0 0 1 33.757,302.757"/><path fill="#fff" d="M54.4 320.2L55.8 320.2L55.8 331.8L54.4 331.8L54.4 320.2ZM59.8 326.6L59.8 326.6L59.8 331.8L58.5 331.8L58.5 323.1L59.8 323.1L59.8 324.5L59.9 324.5Q60.2 323.8 60.8 323.4Q61.4 323.0 62.4 323.0L62.4 323.0Q63.3 323.0 64.0 323.3Q64.6 323.7 65.0 324.4Q65.4 325.2 65.4 326.3L65.4 326.3L65.4 331.8L64.0 331.8L64.0 326.4Q64.0 325.3 63.5 324.8Q63.0 324.2 62.0 324.2L62.0 324.2Q61.4 324.2 60.9 324.5Q60.4 324.7 60.1 325.3Q59.8 325.8 59.8 326.6ZM69.2 331.8L67.8 331.8L67.8 323.1L69.2 323.1L69.2 331.8ZM68.5 321.6L68.5 321.6Q68.1 321.6 67.8 321.4Q67.5 321.1 67.5 320.7L67.5 320.7Q67.5 320.4 67.8 320.1Q68.1 319.8 68.5 319.8L68.5 319.8Q68.9 319.8 69.2 320.1Q69.5 320.4 69.5 320.7L69.5 320.7Q69.5 321.1 69.2 321.4Q68.9 321.6 68.5 321.6ZM75.2 332L75.2 332Q73.9 332 73.0 331.4Q72.2 330.8 71.7 329.8Q71.2 328.8 71.2 327.5L71.2 327.5Q71.2 326.2 71.7 325.2Q72.2 324.1 73.1 323.6Q74.0 323.0 75.1 323.0L75.1 323.0Q76.1 323.0 76.8 323.3Q77.5 323.7 78.0 324.3Q78.5 324.9 78.6 325.7L78.6 325.7L77.3 325.7Q77.1 325.1 76.6 324.6Q76.0 324.2 75.2 324.2L75.2 324.2Q74.4 324.2 73.8 324.6Q73.2 325.0 72.9 325.7Q72.5 326.5 72.5 327.5L72.5 327.5Q72.5 328.5 72.9 329.2Q73.2 330.0 73.8 330.4Q74.4 330.8 75.2 330.8L75.2 330.8Q75.7 330.8 76.1 330.6Q76.5 330.4 76.8 330.1Q77.1 329.8 77.3 329.3L77.3 329.3L78.6 329.3Q78.5 330.0 78.0 330.7Q77.6 331.3 76.9 331.6Q76.1 332 75.2 332ZM81.9 331.8L80.5 331.8L80.5 323.1L81.9 323.1L81.9 331.8ZM81.2 321.6L81.2 321.6Q80.8 321.6 80.6 321.4Q80.3 321.1 80.3 320.7L80.3 320.7Q80.3 320.4 80.6 320.1Q80.8 319.8 81.2 319.8L81.2 319.8Q81.6 319.8 81.9 320.1Q82.2 320.4 82.2 320.7L82.2 320.7Q82.2 321.1 81.9 321.4Q81.6 321.6 81.2 321.6ZM86.9 332.0L86.9 332.0Q86.1 332.0 85.4 331.7Q84.7 331.4 84.3 330.8Q83.9 330.2 83.9 329.3L83.9 329.3Q83.9 328.6 84.2 328.1Q84.5 327.7 85.0 327.4Q85.5 327.1 86.1 327.0Q86.7 326.9 87.3 326.8L87.3 326.8Q88.1 326.7 88.6 326.6Q89.1 326.6 89.3 326.4Q89.6 326.3 89.6 326.0L89.6 326.0L89.6 325.9Q89.6 325.1 89.1 324.6Q88.7 324.2 87.7 324.2L87.7 324.2Q86.8 324.2 86.2 324.6Q85.7 325 85.5 325.5L85.5 325.5L84.2 325.0Q84.5 324.2 85.1 323.8Q85.7 323.3 86.3 323.2Q87.0 323.0 87.7 323.0L87.7 323.0Q88.1 323.0 88.7 323.1Q89.2 323.2 89.7 323.5Q90.2 323.8 90.6 324.4Q90.9 325.0 90.9 326.1L90.9 326.1L90.9 331.8L89.6 331.8L89.6 330.6L89.5 330.6Q89.4 330.9 89.0 331.2Q88.7 331.6 88.2 331.8Q87.7 332.0 86.9 332.0ZM87.1 330.8L87.1 330.8Q87.9 330.8 88.5 330.5Q89.0 330.2 89.3 329.7Q89.6 329.2 89.6 328.7L89.6 328.7L89.6 327.4Q89.5 327.5 89.2 327.6Q88.9 327.7 88.5 327.8Q88.2 327.8 87.8 327.9Q87.5 327.9 87.3 327.9L87.3 327.9Q86.7 328 86.3 328.2Q85.8 328.3 85.5 328.6Q85.3 328.9 85.3 329.4L85.3 329.4Q85.3 330.1 85.8 330.5Q86.3 330.8 87.1 330.8Z M100.4 332.0L100.4 332.0Q99.6 332.0 98.9 331.7Q98.3 331.4 97.9 330.8Q97.5 330.2 97.5 329.3L97.5 329.3Q97.5 328.6 97.8 328.1Q98.0 327.7 98.5 327.4Q99.0 327.1 99.6 327.0Q100.2 326.9 100.8 326.8L100.8 326.8Q101.6 326.7 102.1 326.6Q102.6 326.6 102.9 326.4Q103.1 326.3 103.1 326.0L103.1 326.0L103.1 325.9Q103.1 325.1 102.6 324.6Q102.2 324.2 101.3 324.2L101.3 324.2Q100.3 324.2 99.7 324.6Q99.2 325 99.0 325.5L99.0 325.5L97.7 325.0Q98.0 324.2 98.6 323.8Q99.2 323.3 99.9 323.2Q100.5 323.0 101.2 323.0L101.2 323.0Q101.6 323.0 102.2 323.1Q102.7 323.2 103.2 323.5Q103.8 323.8 104.1 324.4Q104.4 325.0 104.4 326.1L104.4 326.1L104.4 331.8L103.1 331.8L103.1 330.6L103.0 330.6Q102.9 330.9 102.6 331.2Q102.3 331.6 101.7 331.8Q101.2 332.0 100.4 332.0ZM100.6 330.8L100.6 330.8Q101.4 330.8 102.0 330.5Q102.5 330.2 102.8 329.7Q103.1 329.2 103.1 328.7L103.1 328.7L103.1 327.4Q103.0 327.5 102.7 327.6Q102.4 327.7 102.1 327.8Q101.7 327.8 101.3 327.9Q101.0 327.9 100.8 327.9L100.8 327.9Q100.3 328 99.8 328.2Q99.3 328.3 99.1 328.6Q98.8 328.9 98.8 329.4L98.8 329.4Q98.8 330.1 99.3 330.5Q99.8 330.8 100.6 330.8ZM108.2 326.6L108.2 326.6L108.2 331.8L106.9 331.8L106.9 320.2L108.2 320.2L108.2 324.5L108.3 324.5Q108.6 323.8 109.3 323.4Q109.9 323.0 110.9 323.0L110.9 323.0Q111.8 323.0 112.5 323.3Q113.1 323.7 113.5 324.4Q113.9 325.1 113.9 326.3L113.9 326.3L113.9 331.8L112.5 331.8L112.5 326.4Q112.5 325.3 112.0 324.8Q111.5 324.2 110.5 324.2L110.5 324.2Q109.9 324.2 109.3 324.5Q108.8 324.7 108.5 325.3Q108.2 325.8 108.2 326.6ZM119.9 332L119.9 332Q118.7 332 117.8 331.4Q116.9 330.9 116.4 329.9Q115.9 328.9 115.9 327.5L115.9 327.5Q115.9 326.1 116.4 325.1Q116.9 324.1 117.8 323.5Q118.7 323.0 119.9 323.0L119.9 323.0Q121.1 323.0 122.0 323.5Q122.8 324.1 123.3 325.1Q123.8 326.1 123.8 327.5L123.8 327.5Q123.8 328.9 123.3 329.9Q122.8 330.9 122.0 331.4Q121.1 332 119.9 332ZM119.9 330.8L119.9 330.8Q120.8 330.8 121.4 330.3Q121.9 329.9 122.2 329.1Q122.5 328.4 122.5 327.5L122.5 327.5Q122.5 326.6 122.2 325.9Q121.9 325.1 121.4 324.6Q120.8 324.2 119.9 324.2L119.9 324.2Q119.0 324.2 118.4 324.6Q117.8 325.1 117.6 325.9Q117.3 326.6 117.3 327.5L117.3 327.5Q117.3 328.4 117.6 329.1Q117.8 329.9 118.4 330.3Q119.0 330.8 119.9 330.8ZM127.2 331.8L125.9 331.8L125.9 323.1L127.2 323.1L127.2 324.4L127.3 324.4Q127.5 323.8 128.1 323.4Q128.8 323.0 129.5 323.0L129.5 323.0Q129.7 323.0 129.9 323.0Q130.1 323.0 130.3 323.0L130.3 323.0L130.3 324.3Q130.2 324.3 129.9 324.3Q129.7 324.3 129.4 324.3L129.4 324.3Q128.8 324.3 128.3 324.5Q127.8 324.8 127.5 325.2Q127.2 325.7 127.2 326.3L127.2 326.3L127.2 331.8ZM134.4 332.0L134.4 332.0Q133.6 332.0 132.9 331.7Q132.2 331.4 131.8 330.8Q131.4 330.2 131.4 329.3L131.4 329.3Q131.4 328.6 131.7 328.1Q132.0 327.7 132.5 327.4Q133.0 327.1 133.6 327.0Q134.2 326.9 134.8 326.8L134.8 326.8Q135.6 326.7 136.1 326.6Q136.6 326.6 136.8 326.4Q137.1 326.3 137.1 326.0L137.1 326.0L137.1 325.9Q137.1 325.1 136.6 324.6Q136.2 324.2 135.2 324.2L135.2 324.2Q134.3 324.2 133.7 324.6Q133.2 325 133.0 325.5L133.0 325.5L131.7 325.0Q132.0 324.2 132.6 323.8Q133.2 323.3 133.8 323.2Q134.5 323.0 135.2 323.0L135.2 323.0Q135.6 323.0 136.2 323.1Q136.7 323.2 137.2 323.5Q137.7 323.8 138.1 324.4Q138.4 325.0 138.4 326.1L138.4 326.1L138.4 331.8L137.1 331.8L137.1 330.6L137 330.6Q136.9 330.9 136.5 331.2Q136.2 331.6 135.7 331.8Q135.2 332.0 134.4 332.0ZM134.6 330.8L134.6 330.8Q135.4 330.8 136.0 330.5Q136.5 330.2 136.8 329.7Q137.1 329.2 137.1 328.7L137.1 328.7L137.1 327.4Q137.0 327.5 136.7 327.6Q136.4 327.7 136.0 327.8Q135.7 327.8 135.3 327.9Q135.0 327.9 134.8 327.9L134.8 327.9Q134.2 328 133.8 328.2Q133.3 328.3 133.0 328.6Q132.8 328.9 132.8 329.4L132.8 329.4Q132.8 330.1 133.3 330.5Q133.8 330.8 134.6 330.8Z "/><mask id="satori_ms-id-0-0-1-1-1" maskUnits="userSpaceOnUse"><rect x="0" y="0" width="455" height="400" fill="#fff"/><path x="173" y="301" width="139" height="50" fill="#000"  stroke-width="-2" d="M179,301 h127 a6,6 0 0 1 6,6 v38 a6,6 0 0 1 -6,6 h-127 a6,6 0 0 1 -6,-6 v-38 a6,6 0 0 1 6,-6"/></mask><mask id="satori_ms-id-0-0-1-1-1-neg" maskUnits="userSpaceOnUse"><path x="173" y="302" width="139" height="50" fill="#fff" stroke="#000" stroke-width="2" d="M179,302 h127 a6,6 0 0 1 6,6 v38 a6,6 0 0 1 -6,6 h-127 a6,6 0 0 1 -6,-6 v-38 a6,6 0 0 1 6,-6"/></mask><defs><filter id="satori_s-id-0-0-1-1-1" x="0%" y="0%" width="100%" height="100%"><feGaussianBlur stdDeviation="1" result="b"/><feFlood flood-color="rgba(0, 0, 0, 0.1)" in="SourceGraphic" result="f"/><feComposite in="f" in2="b" operator="in"/></filter></defs><g mask="url(#satori_ms-id-0-0-1-1-1)" filter="url(#satori_s-id-0-0-1-1-1)" opacity="1"><g mask="url(#satori_ms-id-0-0-1-1-1-neg)"><path x="173" y="302" width="139" height="50" fill="#fff" stroke="#fff" stroke-width="-2" d="M179,302 h127 a6,6 0 0 1 6,6 v38 a6,6 0 0 1 -6,6 h-127 a6,6 0 0 1 -6,-6 v-38 a6,6 0 0 1 6,-6"/></g></g><mask id="satori_ms-id-0-0-1-1-0" maskUnits="userSpaceOnUse"><rect x="0" y="0" width="455" height="400" fill="#fff"/><path x="173" y="301" width="139" height="50" fill="#000"  stroke-width="0" d="M179,301 h127 a6,6 0 0 1 6,6 v38 a6,6 0 0 1 -6,6 h-127 a6,6 0 0 1 -6,-6 v-38 a6,6 0 0 1 6,-6"/></mask><defs><filter id="satori_s-id-0-0-1-1-0" x="-1.618705035971223%" y="-4.5%" width="103.23741007194245%" height="109.00000000000001%"><feGaussianBlur stdDeviation="1.5" result="b"/><feFlood flood-color="rgba(0, 0, 0, 0.1)" in="SourceGraphic" result="f"/><feComposite in="f" in2="b" operator="in"/></filter></defs><g mask="url(#satori_ms-id-0-0-1-1-0)" filter="url(#satori_s-id-0-0-1-1-0)" opacity="1"><path x="173" y="302" width="139" height="50" fill="#fff" stroke="#fff" stroke-width="0" d="M179,302 h127 a6,6 0 0 1 6,6 v38 a6,6 0 0 1 -6,6 h-127 a6,6 0 0 1 -6,-6 v-38 a6,6 0 0 1 6,-6"/></g><mask id="satori_om-id-0-0-1-1"><rect x="173" y="301" width="139" height="50" fill="#fff"/></mask><defs><clipPath id="satori_bc-id-0-0-1-1-0"><path x="173" y="301" width="139" height="50" d="M179,301 h127 a6,6 0 0 1 6,6 v38 a6,6 0 0 1 -6,6 h-127 a6,6 0 0 1 -6,-6 v-38 a6,6 0 0 1 6,-6"/></clipPath></defs><mask id="satori_om-id-0-0-1-1-0"><rect x="174" y="302" width="137" height="48" fill="#fff"/><path width="139" height="50" fill="none" stroke="#000" stroke-width="2" d="M174.757,302.757 A6,6 0 0 1 179,301 h127 a6,6 0 0 1 6,6 v38 a6,6 0 0 1 -6,6 h-127 a6,6 0 0 1 -6,-6 v-38 A6,6 0 0 1 174.757,302.757"/></mask><path x="173" y="301" width="139" height="50" fill="#fff" d="M179,301 h127 a6,6 0 0 1 6,6 v38 a6,6 0 0 1 -6,6 h-127 a6,6 0 0 1 -6,-6 v-38 a6,6 0 0 1 6,-6"/><path width="139" height="50" clip-path="url(#satori_bc-id-0-0-1-1-0)" fill="none" stroke="transparent" stroke-width="2" d="M174.757,302.757 A6,6 0 0 1 179,301 h127 a6,6 0 0 1 6,6 v38 a6,6 0 0 1 -6,6 h-127 a6,6 0 0 1 -6,-6 v-38 A6,6 0 0 1 174.757,302.757"/><path fill="#4f46e5" d="M204.8 323.8L204.8 323.8L203.4 323.8Q203.2 323.2 202.9 322.8Q202.6 322.3 202.2 322.0Q201.7 321.7 201.2 321.5Q200.7 321.3 200.1 321.3L200.1 321.3Q199.0 321.3 198.2 321.9Q197.3 322.4 196.8 323.4Q196.3 324.5 196.3 326L196.3 326Q196.3 327.5 196.8 328.6Q197.3 329.6 198.2 330.1Q199.0 330.7 200.1 330.7L200.1 330.7Q200.7 330.7 201.2 330.5Q201.7 330.3 202.2 330.0Q202.6 329.7 202.9 329.2Q203.2 328.8 203.4 328.2L203.4 328.2L204.8 328.2Q204.6 329.1 204.2 329.8Q203.8 330.5 203.1 331.0Q202.5 331.5 201.7 331.7Q201.0 332.0 200.1 332.0L200.1 332.0Q198.6 332.0 197.4 331.3Q196.3 330.5 195.6 329.2Q195.0 327.8 195.0 326L195.0 326Q195.0 324.2 195.6 322.8Q196.3 321.5 197.4 320.8Q198.6 320.0 200.1 320.0L200.1 320.0Q201.0 320.0 201.7 320.3Q202.5 320.5 203.1 321.0Q203.8 321.5 204.2 322.2Q204.6 322.9 204.8 323.8ZM210.4 332L210.4 332Q209.2 332 208.3 331.4Q207.4 330.9 207.0 329.9Q206.5 328.9 206.5 327.5L206.5 327.5Q206.5 326.1 207.0 325.1Q207.4 324.1 208.3 323.5Q209.2 323.0 210.4 323.0L210.4 323.0Q211.6 323.0 212.5 323.5Q213.4 324.1 213.9 325.1Q214.4 326.1 214.4 327.5L214.4 327.5Q214.4 328.9 213.9 329.9Q213.4 330.9 212.5 331.4Q211.6 332 210.4 332ZM210.4 330.8L210.4 330.8Q211.3 330.8 211.9 330.3Q212.5 329.9 212.7 329.1Q213.0 328.4 213.0 327.5L213.0 327.5Q213.0 326.6 212.7 325.9Q212.5 325.1 211.9 324.6Q211.3 324.2 210.4 324.2L210.4 324.2Q209.5 324.2 208.9 324.6Q208.4 325.1 208.1 325.9Q207.8 326.6 207.8 327.5L207.8 327.5Q207.8 328.4 208.1 329.1Q208.4 329.9 208.9 330.3Q209.5 330.8 210.4 330.8ZM217.7 326.6L217.7 326.6L217.7 331.8L216.4 331.8L216.4 323.1L217.7 323.1L217.7 324.5L217.8 324.5Q218.1 323.8 218.7 323.4Q219.4 323.0 220.4 323.0L220.4 323.0Q221.2 323.0 221.9 323.3Q222.6 323.7 222.9 324.4Q223.3 325.2 223.3 326.3L223.3 326.3L223.3 331.8L222.0 331.8L222.0 326.4Q222.0 325.3 221.4 324.8Q220.9 324.2 220.0 324.2L220.0 324.2Q219.3 324.2 218.8 324.5Q218.3 324.7 218.0 325.3Q217.7 325.8 217.7 326.6ZM225.0 323.1L229.6 323.1L229.6 324.2L225.0 324.2L225.0 323.1ZM226.4 329.7L226.4 321L227.7 321L227.7 329.3Q227.7 329.9 227.9 330.2Q228.0 330.4 228.3 330.5Q228.6 330.6 228.9 330.6L228.9 330.6Q229.1 330.6 229.2 330.6Q229.4 330.6 229.5 330.6L229.5 330.6L229.7 331.8Q229.6 331.8 229.3 331.9Q229.1 331.9 228.7 331.9L228.7 331.9Q228.2 331.9 227.6 331.7Q227.1 331.4 226.7 330.9Q226.4 330.4 226.4 329.7L226.4 329.7ZM234.2 332.0L234.2 332.0Q233.3 332.0 232.7 331.7Q232.0 331.4 231.6 330.8Q231.2 330.2 231.2 329.3L231.2 329.3Q231.2 328.6 231.5 328.1Q231.8 327.7 232.3 327.4Q232.8 327.1 233.4 327.0Q234.0 326.9 234.6 326.8L234.6 326.8Q235.4 326.7 235.9 326.6Q236.4 326.6 236.6 326.4Q236.8 326.3 236.8 326.0L236.8 326.0L236.8 325.9Q236.8 325.1 236.4 324.6Q235.9 324.2 235.0 324.2L235.0 324.2Q234.0 324.2 233.5 324.6Q232.9 325 232.7 325.5L232.7 325.5L231.4 325.0Q231.8 324.2 232.3 323.8Q232.9 323.3 233.6 323.2Q234.3 323.0 234.9 323.0L234.9 323.0Q235.4 323.0 235.9 323.1Q236.4 323.2 237.0 323.5Q237.5 323.8 237.8 324.4Q238.2 325.0 238.2 326.1L238.2 326.1L238.2 331.8L236.8 331.8L236.8 330.6L236.7 330.6Q236.6 330.9 236.3 331.2Q236.0 331.6 235.4 331.8Q234.9 332.0 234.2 332.0ZM234.4 330.8L234.4 330.8Q235.2 330.8 235.7 330.5Q236.3 330.2 236.5 329.7Q236.8 329.2 236.8 328.7L236.8 328.7L236.8 327.4Q236.7 327.5 236.4 327.6Q236.2 327.7 235.8 327.8Q235.4 327.8 235.1 327.9Q234.7 327.9 234.5 327.9L234.5 327.9Q234.0 328 233.5 328.2Q233.1 328.3 232.8 328.6Q232.5 328.9 232.5 329.4L232.5 329.4Q232.5 330.1 233.0 330.5Q233.6 330.8 234.4 330.8ZM244.2 332L244.2 332Q242.9 332 242.0 331.4Q241.2 330.8 240.7 329.8Q240.2 328.8 240.2 327.5L240.2 327.5Q240.2 326.2 240.7 325.2Q241.2 324.1 242.1 323.6Q243.0 323.0 244.1 323.0L244.1 323.0Q245.1 323.0 245.8 323.3Q246.5 323.7 247.0 324.3Q247.5 324.9 247.6 325.7L247.6 325.7L246.3 325.7Q246.1 325.1 245.6 324.6Q245.0 324.2 244.2 324.2L244.2 324.2Q243.4 324.2 242.8 324.6Q242.2 325.0 241.9 325.7Q241.5 326.5 241.5 327.5L241.5 327.5Q241.5 328.5 241.9 329.2Q242.2 330.0 242.8 330.4Q243.4 330.8 244.2 330.8L244.2 330.8Q244.7 330.8 245.1 330.6Q245.5 330.4 245.8 330.1Q246.1 329.8 246.3 329.3L246.3 329.3L247.6 329.3Q247.5 330.0 247.0 330.7Q246.6 331.3 245.9 331.6Q245.1 332 244.2 332ZM248.8 323.1L253.3 323.1L253.3 324.2L248.8 324.2L248.8 323.1ZM250.1 329.7L250.1 321L251.5 321L251.5 329.3Q251.5 329.9 251.6 330.2Q251.8 330.4 252.1 330.5Q252.3 330.6 252.6 330.6L252.6 330.6Q252.9 330.6 253 330.6Q253.1 330.6 253.2 330.6L253.2 330.6L253.5 331.8Q253.4 331.8 253.1 331.9Q252.9 331.9 252.5 331.9L252.5 331.9Q251.9 331.9 251.4 331.7Q250.8 331.4 250.5 330.9Q250.1 330.4 250.1 329.7L250.1 329.7ZM257.9 332.0L257.9 332.0Q257.1 332.0 256.4 331.7Q255.8 331.4 255.4 330.8Q255.0 330.2 255.0 329.3L255.0 329.3Q255.0 328.6 255.3 328.1Q255.5 327.7 256.0 327.4Q256.5 327.1 257.1 327.0Q257.7 326.9 258.3 326.8L258.3 326.8Q259.1 326.7 259.6 326.6Q260.1 326.6 260.4 326.4Q260.6 326.3 260.6 326.0L260.6 326.0L260.6 325.9Q260.6 325.1 260.1 324.6Q259.7 324.2 258.8 324.2L258.8 324.2Q257.8 324.2 257.2 324.6Q256.7 325 256.5 325.5L256.5 325.5L255.2 325.0Q255.5 324.2 256.1 323.8Q256.7 323.3 257.4 323.2Q258.0 323.0 258.7 323.0L258.7 323.0Q259.1 323.0 259.7 323.1Q260.2 323.2 260.7 323.5Q261.3 323.8 261.6 324.4Q261.9 325.0 261.9 326.1L261.9 326.1L261.9 331.8L260.6 331.8L260.6 330.6L260.5 330.6Q260.4 330.9 260.1 331.2Q259.8 331.6 259.2 331.8Q258.7 332.0 257.9 332.0ZM258.1 330.8L258.1 330.8Q258.9 330.8 259.5 330.5Q260.0 330.2 260.3 329.7Q260.6 329.2 260.6 328.7L260.6 328.7L260.6 327.4Q260.5 327.5 260.2 327.6Q259.9 327.7 259.6 327.8Q259.2 327.8 258.8 327.9Q258.5 327.9 258.3 327.9L258.3 327.9Q257.8 328 257.3 328.2Q256.8 328.3 256.6 328.6Q256.3 328.9 256.3 329.4L256.3 329.4Q256.3 330.1 256.8 330.5Q257.3 330.8 258.1 330.8ZM265.7 326.6L265.7 326.6L265.7 331.8L264.4 331.8L264.4 323.1L265.7 323.1L265.7 324.5L265.8 324.5Q266.1 323.8 266.7 323.4Q267.4 323.0 268.3 323.0L268.3 323.0Q269.2 323.0 269.9 323.3Q270.6 323.7 270.9 324.4Q271.3 325.2 271.3 326.3L271.3 326.3L271.3 331.8L270.0 331.8L270.0 326.4Q270.0 325.3 269.4 324.8Q268.9 324.2 268.0 324.2L268.0 324.2Q267.3 324.2 266.8 324.5Q266.3 324.7 266.0 325.3Q265.7 325.8 265.7 326.6ZM277.3 332L277.3 332Q276.1 332 275.2 331.4Q274.3 330.9 273.8 329.9Q273.3 328.9 273.3 327.5L273.3 327.5Q273.3 326.1 273.8 325.1Q274.3 324.1 275.2 323.5Q276.1 323.0 277.3 323.0L277.3 323.0Q278.5 323.0 279.4 323.5Q280.3 324.1 280.8 325.1Q281.3 326.1 281.3 327.5L281.3 327.5Q281.3 328.9 280.8 329.9Q280.3 330.9 279.4 331.4Q278.5 332 277.3 332ZM277.3 330.8L277.3 330.8Q278.2 330.8 278.8 330.3Q279.4 329.9 279.6 329.1Q279.9 328.4 279.9 327.5L279.9 327.5Q279.9 326.6 279.6 325.9Q279.4 325.1 278.8 324.6Q278.2 324.2 277.3 324.2L277.3 324.2Q276.4 324.2 275.8 324.6Q275.2 325.1 275.0 325.9Q274.7 326.6 274.7 327.5L274.7 327.5Q274.7 328.4 275.0 329.1Q275.2 329.9 275.8 330.3Q276.4 330.8 277.3 330.8ZM289.5 325.0L289.5 325.0L288.3 325.4Q288.2 325.1 287.9 324.8Q287.7 324.5 287.3 324.3Q287.0 324.1 286.4 324.1L286.4 324.1Q285.6 324.1 285.1 324.5Q284.5 324.9 284.5 325.4L284.5 325.4Q284.5 325.9 284.9 326.2Q285.3 326.5 286.0 326.7L286.0 326.7L287.3 327.0Q288.5 327.3 289.1 327.9Q289.6 328.5 289.6 329.4L289.6 329.4Q289.6 330.1 289.2 330.7Q288.8 331.3 288.0 331.7Q287.2 332 286.2 332L286.2 332Q284.9 332 284.0 331.4Q283.1 330.8 282.9 329.7L282.9 329.7L284.2 329.4Q284.4 330.1 284.9 330.5Q285.4 330.8 286.2 330.8L286.2 330.8Q287.1 330.8 287.7 330.4Q288.3 330.0 288.3 329.5L288.3 329.5Q288.3 329 287.9 328.7Q287.6 328.4 287.0 328.2L287.0 328.2L285.5 327.9Q284.3 327.6 283.7 327.0Q283.2 326.4 283.2 325.5L283.2 325.5Q283.2 324.8 283.6 324.2Q284.0 323.6 284.7 323.3Q285.5 323.0 286.4 323.0L286.4 323.0Q287.7 323.0 288.4 323.5Q289.2 324.1 289.5 325.0Z "/></svg>